<?xml version="1.0" encoding="UTF-8"?>
<!DOCTYPE svg PUBLIC "-//W3C//DTD SVG 1.1//EN" "http://www.w3.org/Graphics/SVG/1.1/DTD/svg11.dtd">
<!-- Creator: CorelDRAW -->
<svg xmlns="http://www.w3.org/2000/svg" xml:space="preserve" width="360mm" height="204.886mm" version="1.1" style="shape-rendering:geometricPrecision; text-rendering:geometricPrecision; image-rendering:optimizeQuality; fill-rule:evenodd; clip-rule:evenodd"
viewBox="0 0 35963.8 20467.98"
 xmlns:xlink="http://www.w3.org/1999/xlink">
 <defs>
  <style type="text/css">
   <![CDATA[
    .fil2 {fill:none}
    .fil1 {fill:#007CA3}
    .fil0 {fill:#663333}
   ]]>
  </style>
   <clipPath id="id0">
    <path d="M-0 0l35963.8 0 0 20467.98 -35963.8 0 0 -20467.98z"/>
   </clipPath>
 </defs>
 <g id="PowerClip_x0020_Contents">
  <metadata id="CorelCorpID_0Corel-Layer"/>
  <g>
  </g>
  <g style="clip-path:url(#id0)">
   <g>
    <g id="_105556610392224">
     <path class="fil0" d="M38739.41 -8541.96c168.48,-683.44 320.81,-1535.38 433.89,-2009.53 87.8,-368.11 706.27,-538.83 1035.69,-397.16 331.05,142.36 300.27,442.47 246.6,686.47 -116.85,531.56 -241.66,1088.86 -360.2,1720.14l1009.75 10c148.3,-584.17 344.5,-1457.5 456.16,-1970.91 72.98,-335.79 434.55,-480.33 760.6,-480.04 367.43,0.32 634.11,208.69 514.04,786.33 -94.37,454.33 -271.73,1239.98 -372.12,1650.9l1033.45 16.14c432.45,-2018.61 743.93,-2476.74 205.47,-2917.79 -849.23,-624.73 -1949.64,-82.2 -2196.75,206.99 -450.15,-673.35 -1565.38,-668.72 -2142.98,-100.23l53 -325.5 -1046.81 -16.46 -669.33 3132.94 1039.51 7.71z"/>
     <path class="fil0" d="M45393.72 -9674.05c28.28,-237.45 47.29,-336.47 68.29,-477.86 16.86,-115.27 31.34,-188.31 99.78,-296.61 249.51,-394.73 956.96,-772.56 1611.41,-435.04 555.32,331.31 334.56,1038.55 16.96,1334 -477.3,444.04 -1465.65,489.76 -1796.44,-124.48zm-267.34 865.78c962.76,739.29 2656.53,290.72 3235.65,-865.33 307.85,-614.4 302.71,-1458.64 -457.89,-1862.1 -718.82,-381.26 -1819.23,-165.22 -2177.29,123.68l20.9 -230.16 -1033.3 -25.9 -921.44 4255.71 1053.59 11.06 279.78 -1406.95z"/>
     <path class="fil0" d="M53513.33 -11694.87c-139.18,714.91 -274.42,1342.42 -394.03,1798.21 -286.66,355.72 -1084.92,617.79 -1487.41,340.23 -273.87,-188.88 -43.73,-964.64 226.36,-2112.09l-1026.93 -8.51c-260.82,1342.83 -739.86,2252.91 -202.88,2694.46 536.98,441.55 1503.52,387.72 2337.36,-183.19 -132.56,1387.73 -1319.75,1306.31 -2523.47,999.37l-190.14 776.32c885.21,208.73 1563,179.04 2086.73,74.77 1128.08,-224.58 1445.52,-1162.43 1672.77,-2098.22 36.33,-149.62 79.19,-328.61 131.27,-548.27 249.82,-1052.84 423.54,-1450.28 -629.63,-1733.09z"/>
     <path class="fil0" d="M36370.83 -12060.2c-735.07,-419.76 -1414.5,-570.46 -2000,-554.84 -788.27,21.06 -1861.12,474.55 -2046.71,1124.22 -137.7,482.17 77.86,869.28 719.99,1064.94 701.32,213.65 1783.8,297.86 1678.06,762.16 -33.23,145.78 -205.43,359.68 -673,414.19 -671.31,78.27 -1426.97,-228.7 -1701.3,-368.19l-674.58 714.34c388.69,207.72 825.88,369.36 1402.36,436.71 576.48,67.3 1583.38,38.08 2172.24,-333.89 627.49,-396.39 860.99,-1091.94 483.06,-1558.22 -529.45,-653.09 -2088.36,-569.13 -2241.14,-881.59 -70.27,-143.65 62.38,-410.68 337.27,-503.64 462.57,-156.47 1240.81,-3.92 1875.02,354.55l668.73 -670.73z"/>
     <path class="fil0" d="M44129.1 -6157.58c-148.31,-89.78 -333.51,-140.07 -505.49,-140.93 -227.99,-1.15 -480.39,107.55 -507.59,300.63 -18.28,129.78 95.34,250.88 315.74,282.83 111.59,16.16 257.55,9.8 360.57,37.39 68.83,18.4 127.49,51.76 125.87,117.61 -2.47,100.95 -237.31,117.66 -336.12,114.59 -168.83,-5.25 -294.51,-65.73 -355.15,-133.74l-156.98 149.24c232.86,158.94 456.97,207.15 786.62,152.9 259.75,-42.73 421.14,-304.47 240.73,-472.43 -187.67,-174.72 -642,-58.07 -686.09,-197.5 -35.05,-110.89 63.66,-164.98 204.73,-163.28 123.75,1.51 271.33,51.16 367.99,105.25l145.17 -152.57z"/>
     <path class="fil0" d="M49723.55 -6145.07c-148.32,-89.77 -333.51,-140.07 -505.49,-140.93 -228,-1.15 -480.39,107.56 -507.59,300.64 -18.28,129.78 95.34,250.88 315.74,282.83 111.59,16.16 257.55,9.8 360.56,37.38 68.84,18.41 127.49,51.76 125.87,117.61 -2.46,100.96 -237.3,117.66 -336.11,114.59 -168.83,-5.25 -294.51,-65.73 -355.16,-133.74l-156.98 149.25c232.86,158.93 456.98,207.15 786.63,152.9 259.75,-42.74 421.13,-304.48 240.72,-472.43 -187.66,-174.73 -642,-58.07 -686.09,-197.51 -35.04,-110.88 63.67,-164.97 204.73,-163.27 123.75,1.5 271.33,51.15 368,105.24l145.17 -152.57z"/>
     <path class="fil0" d="M61350.99 -6157.58c-148.32,-89.78 -333.51,-140.07 -505.49,-140.93 -228,-1.15 -480.39,107.55 -507.59,300.63 -18.28,129.78 95.34,250.88 315.74,282.83 111.59,16.16 257.55,9.8 360.57,37.39 68.83,18.4 127.49,51.76 125.87,117.61 -2.47,100.95 -237.31,117.66 -336.12,114.59 -168.83,-5.25 -294.51,-65.73 -355.15,-133.74l-156.98 149.24c232.85,158.94 456.97,207.15 786.62,152.9 259.75,-42.73 421.14,-304.47 240.72,-472.43 -187.66,-174.72 -642,-58.07 -686.09,-197.5 -35.04,-110.89 63.67,-164.98 204.74,-163.28 123.75,1.51 271.33,51.16 367.99,105.25l145.17 -152.57z"/>
     <polygon class="fil0" points="62123.91,-5614.43 61793.43,-6263.82 61477.89,-6264.38 61974.91,-5318.11 61723.24,-4845.47 62011.27,-4843.73 62787.54,-6259.98 62458.94,-6273.8 "/>
     <path class="fil0" d="M63693.97 -11354.77c-954,-726.89 -2901.19,-396.63 -3100.35,532.05 -243.79,1136.81 1773.41,918.6 1798.54,1352.31 12.95,226.76 -340.17,299.76 -563.38,306.49 -348.93,10.58 -824.05,-71.78 -1209.62,-291.93l-548.09 656c285.38,211.24 848.77,342.81 1385.7,365.53 553.03,23.36 1174.67,-73.2 1580.98,-390.47 589.12,-460.1 542.38,-1212.58 -218.42,-1461.66 -801.88,-203.08 -1386.3,-341.68 -1168.49,-597.09 217.81,-255.41 975.2,-133.93 1503.11,134.92l540.04 -606.17z"/>
     <path class="fil0" d="M58198.28 -9226.89l-814.52 -333.13c-1023.41,829.35 -1997.65,121.86 -1793.04,-514.17 335.27,-1042.18 1524.21,-1173.12 2041.46,-556.7l952.63 -362.38c-511.25,-1144.84 -3494.18,-1164.41 -3986.17,840.03 -491.98,2004.44 2550.63,2174.59 3599.63,926.35z"/>
     <polygon class="fil0" points="50532.43,-12789.28 49509.99,-12788.91 48577.7,-8542.25 49618.85,-8536.88 "/>
     <polygon class="fil0" points="60246.07,-11660.61 59196.67,-11668.84 58489.06,-8539.82 59555.03,-8517.07 "/>
     <polygon class="fil0" points="37806.97,-11669.09 36757.83,-11670.9 36075.24,-8541.64 37138.86,-8533.17 "/>
     <path class="fil0" d="M66059.21 -5871.8c-7452.33,4983.79 -20936.17,5361.56 -29766.37,1900.26 -8830.19,-3461.31 -9403.29,-9034.31 -5963.46,-12490.1 -7960.51,5440.35 -3695.55,11809.23 4890.57,14801.21 9451.7,3293.62 24607.51,2298.98 30839.26,-4211.37z"/>
     <path class="fil0" d="M58526.14 -16251.81c-1089.17,240.26 -2681.09,589.94 -3282.21,699.73 -2012.11,367.51 -17761,3464.63 -19967.92,-5.62 -15.07,-260.42 3.63,-415.96 19.04,-680.3 1684.03,1405.17 5919.06,1225.84 7188.02,942.62 157.34,-35.08 357.24,-74.58 323.94,-243.52 -28.16,-143.05 -249.29,-116.06 -385.92,-119.35 -360.67,-8.72 -694.82,-17.92 -1346.7,16.2 -4022.64,210.61 -4885.52,-1045.66 -5633.75,-1100.67 277.54,-563.78 861.87,-879.19 1608.37,-1088.03 482.08,-134.85 1070.37,-245.98 1576.63,-356.6 695.21,-151.89 1222.49,-185.49 1743.12,-247.42 325.61,-38.74 648.67,-88.59 1008.57,-185.38 593.3,-146.41 1062.66,-531.41 1787.68,-789.06 221.82,206.47 485.9,454.32 747.89,648.38 -106.11,173.9 172.4,541.39 608.64,354.45 436.24,-186.92 153.02,-591.73 -65.76,-585.39 -201.09,-212.11 -437.89,-434.6 -654.88,-702.65 304.45,-171.96 743.1,-326.65 1165.69,-572.2 355.91,399.32 697.34,643.78 955.49,856.04 -89.53,237.26 381.84,546.1 716.38,297.66 334.54,-248.43 -81.77,-606.47 -291.21,-563.5 -294.8,-291.27 -571.79,-537.5 -849.5,-829.52 242.2,-119.93 475.16,-255.63 810.63,-389.95 323.94,266.64 682.03,613.23 1154.56,832.37 -61.53,241.29 395.89,504.86 717.85,288.22 321.95,-216.64 39.65,-575.23 -249.89,-569.02 -312.86,-234.73 -774.05,-605.44 -1012.49,-824.14 284.53,-206.67 493.44,-336.9 872.89,-621.1 364.39,355.51 839.64,692.11 1621.49,935.33 -18.56,81.3 -52.79,171.24 -42.21,253.69 29.22,227.62 447.06,319.22 676.58,184.36 335.04,-196.86 106.09,-594.58 -289.07,-590.37 -497.79,-463.44 -922.88,-658.43 -1378.66,-1141.38 520.73,-372.71 1342.19,-817.64 2275.56,-1064.92 189.94,-50.32 274.32,-19.37 366.57,30.84 334.43,181.96 547.06,627.11 696.26,1037.05 149.99,412.13 -115.22,1396.14 1352.22,1913.31 1467.46,517.18 2819.98,-503.95 3118.56,-707.41 569,-387.72 2244.72,-1552.71 2710.72,-196.27 77.11,224.45 512.79,1087.76 2311.78,1745.09 516.35,188.66 3476.27,981.41 5451.43,2685 654.12,564.16 1228.18,1271.44 1547.38,1997.39 394.25,896.61 633.48,2316.63 -480.8,3869.99 -477.25,665.33 -1413.21,1776.51 -2198.15,1613.62 -430.97,-89.43 -257.88,-744.87 61.02,-1716.47 400.34,6.15 562.52,17.61 1000.2,22.61 50.31,-196.66 109.82,-541.34 137.34,-738.59 -360.71,-4.88 -538.16,0.9 -972.74,3.29 60.08,-310.07 106.44,-527.24 165.17,-877.43 -401.03,4.79 -573.31,10.63 -997.75,14.18 -59.27,289.36 -117.03,576.01 -165.49,861.12 -246.28,2.94 -430.9,-6.48 -683.51,-8.92 -47.27,246.69 -81.29,455.7 -134.81,728.98 300.38,10.96 388.83,12.35 624.55,24.01 -121.88,505.06 -677.72,2131.05 218.05,2382.05 1591.96,467.51 3042.22,-1236.43 3648.2,-2139.32 440.1,-655.73 779.86,-1402.42 880.89,-2152.04 192.4,-1427.5 -514.64,-2684.1 -1277.79,-3553.74 -1742.86,-1986.06 -5114.53,-3099.22 -5282.41,-3150.66 -3017.55,-924.86 -3128.86,-1910.68 -3142.65,-1942.8 -384.55,-895.43 -1497.3,-1342.46 -3183.11,-434.83 -652.87,351.53 -1549.07,1121.08 -2278.79,1174.37 -729.73,53.29 -1221.66,-271.69 -1340,-480.06 -293.01,-515.98 -153.82,-560.46 -360.53,-1182.43 -112.17,-337.5 -222.96,-572.28 -473.95,-865.09 -212.46,-247.86 -436.39,-413.54 -645.31,-508.43 -328.43,-149.16 -547.47,-99.91 -887.08,-25.7 -553.71,120.96 -1339.03,382.53 -2047.19,861.47 -632.32,-119.14 -877.09,177.51 -834.41,501.13 -333.31,177.07 -606.82,352.14 -788.94,515.39 -50.44,-227.73 -756.77,-272.22 -753.36,425.81 -260.96,158.62 -427.56,234.21 -545.02,290.16 -196.31,-226.6 -464.8,-183.05 -639.56,-36.43 -114.51,96.05 -179.43,218.66 -139.45,362.52 -376.14,214.41 -607.97,304.78 -911.99,473.71 -31.7,-207.3 -433.42,-262.84 -763.5,-76.27 -201.84,114.06 -391.9,224.85 -274.98,542.5 -926.13,400.65 -1159.84,637.06 -1679.95,721.68 -2838.51,461.84 -5546.52,730.26 -6275.79,2018.56 -177.04,312.74 -304.8,688.79 -377.6,1143.27 43.01,4941.15 17150.89,1956.33 20849.5,971.61 1343.83,-357.79 2888.02,-810.06 3544.03,-1069.64 49.78,-19.71 43.44,-64.62 14.99,-100.14 -69.38,-86.65 -183.25,-30.76 -291.13,-6.96z"/>
     <path class="fil0" d="M53763.51 -12169.29c662.16,-57.24 1075.98,-229.19 1355.23,-835.42 -12.93,702.62 564.02,979.16 965.01,1132.78 -1024.36,40.86 -1208,517.19 -1386.27,778.06 12.93,-776.38 -723.12,-989.33 -933.96,-1075.42z"/>
     <path class="fil0" d="M55103.59 -13689.17c242.97,-13.46 687.88,0.24 868.83,-491.28 12.97,407.64 351.87,577.67 571.74,673.93 -579.37,57.23 -668.68,328.71 -803.45,508.45 -7.77,-464.99 -440.6,-610.8 -637.12,-691.1z"/>
     <path class="fil0" d="M56875.05 -14052.15c315.4,23.43 1044.93,-175.9 1225.88,-667.41 -18.08,395.33 289.82,733.32 809.83,936.12 -739.81,8.04 -1041.29,443.43 -1155.38,655.94 -7.76,-464.98 -487.17,-856.63 -880.33,-924.65z"/>
     <path class="fil0" d="M59579.24 -12757.21c267.94,-142.92 651.86,-149.76 830.16,85.96 110.3,145.85 59.12,386.28 -108.56,551.45 -205.64,202.55 -687.54,258.36 -915.26,81.58 -241.57,-187.47 -75.78,-575.29 193.66,-719zm253.81 65.94c447.78,-85.3 555.42,403.73 217.06,543.18 -20.37,8.4 -42.22,6.22 -57.22,1.58 -40.66,-12.62 -12.11,-42.43 9.7,-57.8 94.1,-66.38 146.39,-165.45 129.98,-240.96 -30.76,-141.5 -164.59,-189.86 -296.07,-185.78 -20.85,0.65 -37.59,-4.43 -45.47,-24.42 -6.94,-17.56 14.75,-30.6 42.03,-35.8z"/>
     <path class="fil0" d="M37159.4 -12754.63c267.93,-142.91 651.86,-149.75 830.16,85.97 110.3,145.85 59.12,386.28 -108.56,551.45 -205.64,202.54 -687.54,258.36 -915.26,81.58 -241.57,-187.47 -75.78,-575.29 193.66,-719.01zm253.81 65.95c447.78,-85.3 555.42,403.73 217.06,543.18 -20.38,8.39 -42.22,6.22 -57.22,1.58 -40.66,-12.62 -12.11,-42.43 9.7,-57.8 94.1,-66.38 146.38,-165.45 129.98,-240.96 -30.77,-141.5 -164.59,-189.86 -296.08,-185.78 -20.84,0.65 -37.58,-4.43 -45.46,-24.42 -6.94,-17.56 14.75,-30.6 42.03,-35.8z"/>
     <path class="fil0" d="M39235.46 -5717.23l-992.18 4.39c27.95,301.47 507.59,316.13 755.67,155.86l171.58 142.14c-374.09,227.03 -856.04,202.22 -1077.72,-17.2 -85.76,-84.89 -126.24,-189.12 -127.71,-294.94 -9.78,-706.84 1314.3,-752.89 1270.36,9.76zm-978.92 -153.82c64.83,-318.83 726.69,-270.79 733.36,2.41l-733.36 -2.41z"/>
     <path class="fil0" d="M48547.19 -5704.73l-992.18 4.39c27.95,301.47 507.59,316.13 755.67,155.87l171.58 142.13c-374.08,227.04 -856.04,202.22 -1077.72,-17.2 -85.76,-84.88 -126.24,-189.11 -127.71,-294.93 -9.78,-706.85 1314.31,-752.9 1270.36,9.75zm-978.91 -153.81c64.82,-318.83 726.69,-270.8 733.35,2.4l-733.35 -2.4z"/>
     <path class="fil0" d="M47093.01 -5720.21c-19.4,275.04 -263.49,481.08 -651.08,476.91 -387.58,-4.16 -632.47,-271.52 -619.34,-523.93 13.15,-252.42 277.99,-493.7 641.05,-493.51 363.05,0.19 648.77,265.5 629.37,540.54zm-273.99 -13.7c-11.03,156.34 -149.81,273.48 -370.15,271.12 -220.35,-2.37 -359.58,-154.36 -352.11,-297.86 7.47,-143.5 158.04,-280.68 364.45,-280.57 206.38,0.11 368.83,150.94 357.8,307.31z"/>
     <path class="fil0" d="M54046.06 -5732.64c-19.4,275.03 -263.49,481.08 -651.07,476.91 -387.59,-4.17 -632.48,-271.53 -619.34,-523.94 13.14,-252.42 277.98,-493.69 641.04,-493.51 363.05,0.19 648.77,265.5 629.37,540.55zm-273.99 -13.71c-11.03,156.34 -149.81,273.48 -370.14,271.12 -220.36,-2.37 -359.58,-154.36 -352.12,-297.86 7.47,-143.5 158.05,-280.68 364.45,-280.57 206.38,0.11 368.83,150.95 357.8,307.31z"/>
     <path class="fil0" d="M56528.63 -5717.23l-992.17 4.39c27.94,301.47 507.59,316.13 755.67,155.86l171.58 142.14c-374.09,227.03 -856.04,202.22 -1077.73,-17.2 -85.75,-84.89 -126.24,-189.12 -127.7,-294.94 -9.78,-706.84 1314.3,-752.89 1270.35,9.76zm-978.91 -153.82c64.83,-318.83 726.69,-270.79 733.35,2.41l-733.35 -2.41z"/>
     <path class="fil0" d="M58600.72 -5717.23l-992.17 4.39c27.94,301.47 507.59,316.13 755.67,155.86l171.58 142.14c-374.09,227.03 -856.04,202.22 -1077.73,-17.2 -85.75,-84.89 -126.24,-189.12 -127.7,-294.94 -9.78,-706.84 1314.3,-752.89 1270.35,9.76zm-978.91 -153.82c64.83,-318.83 726.69,-270.79 733.35,2.41l-733.35 -2.41z"/>
     <path class="fil0" d="M40456.55 -6089.56l6.04 -176.22 243.14 8.5 14.91 971.01 -268.3 -3.9 -3.8 -107.79c-405.48,289.27 -1011.99,116.86 -1026.03,-330.69 -7.69,-244.21 167.56,-501.25 504.42,-536.98 225.17,-23.9 470,77.56 529.61,176.06zm-782.27 346.01c3.66,-176.67 178.17,-316.64 374.21,-316.28 196.03,0.35 415.74,116.31 405.71,319.59 -10.03,203.27 -245.36,305.92 -410.82,309.33 -165.45,3.41 -372.76,-135.95 -369.11,-312.64z"/>
     <path class="fil0" d="M59793.77 -6089.56l6.04 -176.22 243.14 8.5 14.92 971.01 -268.31 -3.9 -3.8 -107.79c-405.47,289.27 -1011.98,116.86 -1026.03,-330.69 -7.68,-244.21 167.57,-501.25 504.42,-536.98 225.18,-23.9 470,77.56 529.61,176.06zm-782.27 346.01c3.67,-176.67 178.17,-316.64 374.21,-316.28 196.04,0.35 415.74,116.31 405.71,319.59 -10.03,203.27 -245.36,305.92 -410.82,309.33 -165.45,3.41 -372.76,-135.95 -369.11,-312.64z"/>
     <path class="fil0" d="M41301.26 -6067.14l-10.5 -176.43 -269.7 0.53 16.12 987.4 268.3 -3.91 -1.39 -542.07c156.01,-378.92 688.85,-248.63 692.05,15.42l6.25 512.07 255.28 -5.12c19.34,-332.8 -1.12,-542.53 -45.52,-677.24 -120.3,-364.75 -753.42,-370.86 -910.9,-110.65z"/>
     <path class="fil0" d="M50883.77 -6067.14l-10.51 -176.43 -269.69 0.53 16.11 987.4 268.31 -3.91 -1.39 -542.07c73.16,-168.53 176.36,-226.91 286.51,-226.91 123.99,0 251.9,62.86 255.47,220.71l12.5 552.18 268.3 -3.91c-0.47,-180.69 -0.95,-361.39 -1.39,-542.07 57.68,-340.01 542.79,-269.08 541.99,9.28l-1.51 518.22 281.18 -3.48c6.82,-334.9 5.08,-529.99 -31.47,-670.69 -95.67,-368.28 -783.54,-355.4 -924.74,-96.96 -173.44,-274.41 -562.8,-258.79 -689.69,-21.88z"/>
     <path class="fil0" d="M54557.9 -6067.14l-10.51 -176.43 -269.69 0.53 16.11 987.4 268.31 -3.91 -1.39 -542.07c176.42,-436.79 467.2,-105.34 527.1,-195.69l94.83 -143.02c-187.14,-169.6 -514.94,-131.89 -624.77,73.2z"/>
     <path class="fil0" d="M44770.85 -6067.14l-0.16 -598.44 -259.35 -7.65 -4.58 1417.58 268.31 -3.91 -1.39 -542.07c156,-378.92 639.74,-248.62 640.3,15.42l1.08 499.79 286.34 -5.12c-0.94,-226.9 38.84,-660.98 -127.24,-810.84 -220.45,-198.95 -679.09,-178.58 -803.31,35.24z"/>
     <path class="fil0" d="M37205.7 -5471.28l-182.06 -138.16c-110.01,44.24 -179.89,82.87 -281.79,107.58 -201.44,48.87 -387.95,41.66 -536.7,-27.17 -235.47,-108.92 -335.62,-343.71 -282.86,-549.34 44.24,-172.3 190.33,-327.82 408.02,-380.03 214.56,-51.47 467.75,-0.65 656.57,119.04l166.86 -138.55c-69.86,-78.86 -198.09,-145.14 -353.22,-183.6 -382.19,-94.75 -738.77,-9.07 -977.9,250.31 -111.3,120.77 -183.33,271.46 -179.01,433.97 9.31,349.23 220.26,588.48 530.95,679.94 310.69,91.45 716.81,31.69 1031.13,-173.99z"/>
     <polygon class="fil0" points="37721.54,-6604.13 37721.26,-5255.65 37451.24,-5257.72 37445.54,-6606.29 "/>
    </g>
    <path class="fil1" d="M35956.26 -4636.11l7.53 21044.71c-4110.74,2751.73 -9701.33,4132.69 -15405.52,4059.37 -11091.32,-142.56 -19204.03,-5251.55 -20529.53,-11571.49l-28.74 -13532.6 35956.26 0z"/>
   </g>
  </g>
  <polygon class="fil2" points="-0,0 35963.8,0 35963.8,20467.98 -0,20467.98 "/>
 </g>
</svg>
 class="fil2" points="-0,0 35963.8,0 35963.8,25851.15 -0,25851.15 "/>
 </g>
</svg>
