<?xml version="1.0" encoding="UTF-8"?>
<!DOCTYPE svg PUBLIC "-//W3C//DTD SVG 1.1//EN" "http://www.w3.org/Graphics/SVG/1.1/DTD/svg11.dtd">
<!-- Creator: CorelDRAW -->
<svg xmlns="http://www.w3.org/2000/svg" xml:space="preserve" width="360mm" height="165mm" version="1.1" style="shape-rendering:geometricPrecision; text-rendering:geometricPrecision; image-rendering:optimizeQuality; fill-rule:evenodd; clip-rule:evenodd"
viewBox="0 0 35963.8 16483.4"
 xmlns:xlink="http://www.w3.org/1999/xlink">
 <defs>
  <style type="text/css">
   <![CDATA[
    .fil2 {fill:none}
    .fil1 {fill:#007CA3}
    .fil0 {fill:#663333}
   ]]>
  </style>
   <clipPath id="id0">
    <path d="M-0 0l35963.8 0 0 16483.4 -35963.8 0 0 -16483.4z"/>
   </clipPath>
 </defs>
 <g id="PowerClip_x0020_Contents">
  <metadata id="CorelCorpID_0Corel-Layer"/>
  <g>
  </g>
  <g style="clip-path:url(#id0)">
   <g>
    <g id="_105555335734720">
     <path class="fil0" d="M38739.41 -6879.08c168.48,-550.4 320.81,-1236.49 433.89,-1618.32 87.8,-296.45 706.27,-433.93 1035.69,-319.85 331.05,114.64 300.27,356.33 246.6,552.83 -116.85,428.08 -241.66,876.9 -360.2,1385.27l1009.75 8.06c148.3,-470.46 344.5,-1173.77 456.16,-1587.22 72.98,-270.43 434.54,-386.82 760.59,-386.59 367.44,0.26 634.12,168.06 514.05,633.25 -94.37,365.89 -271.73,998.58 -372.12,1329.51l1033.45 13c432.45,-1625.63 743.93,-1994.57 205.47,-2349.77 -849.23,-503.11 -1949.64,-66.19 -2196.75,166.7 -450.15,-542.27 -1565.38,-538.54 -2142.98,-80.72l53 -262.14 -1046.81 -13.26 -669.33 2523.04 1039.51 6.2z"/>
     <path class="fil0" d="M45393.72 -7790.78c28.28,-191.23 47.29,-270.97 68.29,-384.83 16.86,-92.84 31.34,-151.65 99.78,-238.87 249.51,-317.89 956.96,-622.16 1611.41,-350.35 555.32,266.81 334.56,836.37 16.96,1074.3 -477.3,357.6 -1465.65,394.41 -1796.44,-100.25zm-267.35 697.24c962.77,595.36 2656.53,234.12 3235.65,-696.88 307.86,-494.79 302.72,-1174.68 -457.89,-1499.59 -718.81,-307.04 -1819.22,-133.07 -2177.28,99.6l20.89 -185.35 -1033.29 -20.86 -921.44 3427.23 1053.58 8.9 279.78 -1133.05z"/>
     <path class="fil0" d="M53513.33 -9418.2c-139.18,575.74 -274.43,1081.09 -394.03,1448.15 -286.66,286.47 -1084.93,497.52 -1487.42,273.99 -273.86,-152.11 -43.73,-776.85 226.37,-1700.93l-1026.93 -6.85c-260.82,1081.41 -739.86,1814.33 -202.88,2169.92 536.98,355.59 1503.52,312.25 2337.36,-147.52 -132.56,1117.58 -1319.75,1052.01 -2523.47,804.82l-190.14 625.2c885.21,168.09 1563,144.17 2086.73,60.21 1128.08,-180.87 1445.52,-936.14 1672.76,-1689.75 36.34,-120.49 79.2,-264.63 131.28,-441.54 249.82,-847.88 423.54,-1167.95 -629.63,-1395.7z"/>
     <path class="fil0" d="M36370.82 -9712.4c-735.07,-338.04 -1414.49,-459.41 -1999.99,-446.83 -788.27,16.96 -1861.12,382.17 -2046.72,905.36 -137.69,388.31 77.87,700.07 719.99,857.63 701.33,172.06 1783.81,239.88 1678.07,613.79 -33.23,117.4 -205.43,289.66 -673,333.55 -671.31,63.04 -1426.97,-184.17 -1701.3,-296.51l-674.58 575.28c388.68,167.28 825.88,297.46 1402.36,351.69 576.48,54.21 1583.38,30.68 2172.24,-268.89 627.49,-319.23 860.99,-879.36 483.06,-1254.87 -529.45,-525.96 -2088.36,-458.34 -2241.14,-709.98 -70.27,-115.68 62.38,-330.73 337.27,-405.6 462.57,-126.01 1240.81,-3.15 1875.02,285.53l668.72 -540.16z"/>
     <path class="fil0" d="M44129.1 -4958.87c-148.31,-72.3 -333.51,-112.81 -505.49,-113.5 -228,-0.93 -480.39,86.62 -507.59,242.11 -18.28,104.51 95.34,202.04 315.74,227.77 111.59,13.02 257.55,7.89 360.57,30.1 68.83,14.83 127.49,41.69 125.87,94.72 -2.47,81.3 -237.31,94.75 -336.12,92.29 -168.83,-4.24 -294.51,-52.94 -355.15,-107.7l-156.98 120.19c232.85,127.99 456.97,166.82 786.62,123.13 259.75,-34.41 421.14,-245.2 240.73,-380.46 -187.67,-140.72 -642.01,-46.77 -686.09,-159.06 -35.05,-89.3 63.66,-132.87 204.73,-131.49 123.75,1.21 271.33,41.2 367.99,84.76l145.17 -122.87z"/>
     <path class="fil0" d="M49723.54 -4948.8c-148.31,-72.3 -333.5,-112.8 -505.48,-113.5 -228,-0.92 -480.4,86.62 -507.6,242.12 -18.28,104.51 95.35,202.04 315.75,227.76 111.59,13.02 257.55,7.89 360.56,30.11 68.84,14.83 127.49,41.68 125.87,94.71 -2.46,81.31 -237.3,94.76 -336.11,92.29 -168.83,-4.23 -294.51,-52.94 -355.16,-107.7l-156.98 120.2c232.86,127.99 456.98,166.82 786.63,123.13 259.74,-34.42 421.13,-245.2 240.72,-380.47 -187.66,-140.71 -642,-46.76 -686.09,-159.05 -35.04,-89.3 63.67,-132.87 204.73,-131.49 123.75,1.21 271.33,41.2 368,84.75l145.16 -122.87z"/>
     <path class="fil0" d="M61350.99 -4958.87c-148.32,-72.3 -333.51,-112.81 -505.49,-113.5 -228,-0.93 -480.39,86.62 -507.59,242.11 -18.28,104.51 95.34,202.04 315.74,227.77 111.59,13.02 257.55,7.89 360.56,30.1 68.84,14.83 127.49,41.69 125.88,94.72 -2.47,81.3 -237.31,94.75 -336.12,92.29 -168.83,-4.24 -294.51,-52.94 -355.16,-107.7l-156.98 120.19c232.86,127.99 456.98,166.82 786.63,123.13 259.75,-34.41 421.13,-245.2 240.72,-380.46 -187.66,-140.72 -642,-46.77 -686.09,-159.06 -35.04,-89.3 63.67,-132.87 204.74,-131.49 123.74,1.21 271.32,41.2 367.99,84.76l145.17 -122.87z"/>
     <polygon class="fil0" points="62123.91,-4521.46 61793.43,-5044.43 61477.89,-5044.88 61974.9,-4282.82 61723.24,-3902.19 62011.27,-3900.79 62787.53,-5041.34 62458.94,-5052.46 "/>
     <path class="fil0" d="M63693.97 -9144.3c-954,-585.38 -2901.19,-319.42 -3100.35,428.48 -243.79,915.5 1773.41,739.77 1798.54,1089.05 12.95,182.62 -340.17,241.4 -563.38,246.82 -348.93,8.52 -824.05,-57.8 -1209.62,-235.09l-548.09 528.3c285.38,170.11 848.77,276.07 1385.7,294.36 553.03,18.81 1174.66,-58.94 1580.98,-314.44 589.12,-370.54 542.38,-976.53 -218.42,-1177.12 -801.88,-163.55 -1386.3,-275.16 -1168.5,-480.86 217.81,-205.69 975.21,-107.85 1503.12,108.66l540.04 -488.17z"/>
     <path class="fil0" d="M58198.27 -7430.67l-814.52 -268.28c-1023.41,667.9 -1997.64,98.14 -1793.03,-414.07 335.27,-839.31 1524.21,-944.75 2041.46,-448.33l952.63 -291.84c-511.26,-921.96 -3494.18,-937.73 -3986.17,676.51 -491.98,1614.23 2550.62,1751.26 3599.62,746.01z"/>
     <polygon class="fil0" points="50532.43,-10299.54 49509.99,-10299.25 48577.7,-6879.3 49618.84,-6874.98 "/>
     <polygon class="fil0" points="60246.06,-9390.61 59196.67,-9397.24 58489.06,-6877.36 59555.03,-6859.03 "/>
     <polygon class="fil0" points="37806.97,-9397.43 36757.83,-9398.9 36075.24,-6878.82 37138.86,-6871.99 "/>
     <path class="fil0" d="M66059.21 -4728.73c-7452.33,4013.59 -20936.17,4317.81 -29766.37,1530.34 -8830.19,-2787.48 -9403.29,-7275.58 -5963.46,-10058.61 -7960.51,4381.26 -3695.55,9510.3 4890.57,11919.81 9451.7,2652.44 24607.51,1851.44 30839.26,-3391.54z"/>
     <path class="fil0" d="M58526.14 -13088.02c-1089.17,193.5 -2681.09,475.09 -3282.21,563.51 -2012.11,295.96 -17761,2790.16 -19967.92,-4.53 -15.07,-209.73 3.63,-334.99 19.04,-547.87 1684.02,1131.62 5919.06,987.21 7188.02,759.13 157.34,-28.26 357.23,-60.07 323.94,-196.12 -28.16,-115.19 -249.29,-93.47 -385.92,-96.12 -360.67,-7.01 -694.82,-14.43 -1346.7,13.06 -4022.64,169.61 -4885.52,-842.1 -5633.75,-886.4 277.54,-454.03 861.87,-708.05 1608.37,-876.23 482.08,-108.6 1070.36,-198.1 1576.63,-287.17 695.21,-122.33 1222.49,-149.39 1743.12,-199.27 325.61,-31.2 648.67,-71.34 1008.56,-149.29 593.31,-117.91 1062.66,-427.96 1787.69,-635.45 221.82,166.28 485.89,365.88 747.89,522.16 -106.11,140.05 172.4,435.99 608.64,285.45 436.24,-150.54 153.02,-476.54 -65.77,-471.44 -201.08,-170.82 -437.88,-350 -654.87,-565.87 304.45,-138.48 743.1,-263.06 1165.69,-460.81 355.91,321.59 697.33,518.45 955.49,689.4 -89.53,191.07 381.84,439.79 716.38,239.71 334.54,-200.07 -81.77,-488.41 -291.21,-453.8 -294.8,-234.56 -571.79,-432.86 -849.5,-668.04 242.2,-96.58 475.16,-205.87 810.63,-314.04 323.94,214.74 682.03,493.86 1154.56,670.34 -61.53,194.31 395.89,406.58 717.85,232.12 321.95,-174.47 39.65,-463.24 -249.89,-458.25 -312.87,-189.03 -774.05,-487.57 -1012.49,-663.7 284.53,-166.43 493.44,-271.32 872.89,-500.2 364.39,286.31 839.64,557.39 1621.49,753.25 -18.56,65.47 -52.79,137.9 -42.21,204.3 29.22,183.31 447.06,257.07 676.58,148.47 335.04,-158.53 106.08,-478.83 -289.07,-475.43 -497.8,-373.22 -922.88,-530.26 -1378.66,-919.18 520.73,-300.16 1342.19,-658.47 2275.55,-857.61 189.95,-40.53 274.33,-15.59 366.58,24.83 334.43,146.53 547.06,505.02 696.26,835.16 149.99,331.9 -115.23,1124.35 1352.22,1540.85 1467.46,416.49 2819.97,-405.85 3118.56,-569.7 569,-312.25 2244.71,-1250.44 2710.72,-158.06 77.11,180.75 512.79,876 2311.78,1405.37 516.34,151.94 3476.27,790.35 5451.42,2162.29 654.13,454.34 1228.19,1023.93 1547.39,1608.56 394.25,722.06 633.47,1865.64 -480.8,3116.6 -477.25,535.81 -1413.21,1430.67 -2198.16,1299.49 -430.96,-72.03 -257.87,-599.87 61.03,-1382.32 400.33,4.95 562.52,14.18 1000.2,18.2 50.31,-158.38 109.82,-435.95 137.33,-594.8 -360.71,-3.93 -538.15,0.72 -972.73,2.65 60.08,-249.71 106.44,-424.6 165.17,-706.62 -401.03,3.86 -573.31,8.56 -997.75,11.42 -59.27,233.03 -117.03,463.87 -165.49,693.49 -246.28,2.36 -430.9,-5.22 -683.51,-7.19 -47.27,198.67 -81.29,366.99 -134.82,587.07 300.39,8.82 388.84,9.94 624.56,19.33 -121.88,406.74 -677.72,1716.19 218.05,1918.33 1591.95,376.5 3042.22,-995.73 3648.2,-1722.85 440.1,-528.08 779.86,-1129.4 880.89,-1733.11 192.39,-1149.6 -514.65,-2161.57 -1277.79,-2861.92 -1742.86,-1599.43 -5114.53,-2495.89 -5282.41,-2537.32 -3017.55,-744.81 -3128.86,-1538.71 -3142.65,-1564.58 -384.55,-721.11 -1497.3,-1081.12 -3183.11,-350.18 -652.88,283.09 -1549.07,902.83 -2278.8,945.74 -729.72,42.92 -1221.65,-218.79 -1339.99,-386.6 -293.01,-415.53 -153.82,-451.35 -360.54,-952.23 -112.16,-271.81 -222.95,-460.89 -473.94,-696.69 -212.47,-199.6 -436.39,-333.03 -645.32,-409.45 -328.42,-120.13 -547.46,-80.46 -887.07,-20.7 -553.71,97.41 -1339.03,308.06 -2047.19,693.76 -632.33,-95.94 -877.09,142.97 -834.41,403.57 -333.31,142.6 -606.83,283.58 -788.94,415.06 -50.44,-183.41 -756.77,-219.23 -753.36,342.91 -260.96,127.74 -427.56,188.61 -545.02,233.66 -196.31,-182.49 -464.8,-147.4 -639.56,-29.33 -114.51,77.35 -179.43,176.09 -139.45,291.94 -376.14,172.68 -607.97,245.45 -911.99,381.5 -31.7,-166.94 -433.42,-211.67 -763.51,-61.42 -201.84,91.85 -391.89,181.07 -274.97,436.89 -926.14,322.66 -1159.84,513.03 -1679.95,581.18 -2838.51,371.94 -5546.52,588.11 -6275.8,1625.6 -177.03,251.85 -304.8,554.7 -377.59,920.7 43.01,3979.23 17150.89,1575.48 20849.5,782.46 1343.83,-288.14 2888.02,-652.36 3544.03,-861.41 49.78,-15.86 43.44,-52.05 14.99,-80.65 -69.39,-69.78 -183.25,-24.77 -291.13,-5.6z"/>
     <path class="fil0" d="M53763.51 -9800.25c662.16,-46.1 1075.98,-184.57 1355.23,-672.79 -12.93,565.85 564.02,788.55 965.01,912.26 -1024.36,32.9 -1208.01,416.51 -1386.27,626.59 12.93,-625.24 -723.12,-796.74 -933.96,-866.06z"/>
     <path class="fil0" d="M55103.59 -11024.26c242.96,-10.84 687.88,0.2 868.82,-395.63 12.98,328.28 351.87,465.21 571.75,542.73 -579.37,46.09 -668.68,264.71 -803.45,409.47 -7.77,-374.47 -440.6,-491.88 -637.12,-556.57z"/>
     <path class="fil0" d="M56875.05 -11316.58c315.4,18.86 1044.93,-141.67 1225.88,-537.49 -18.09,318.38 289.82,590.58 809.82,753.89 -739.8,6.46 -1041.28,357.11 -1155.37,528.24 -7.76,-374.46 -487.17,-689.87 -880.33,-744.64z"/>
     <path class="fil0" d="M59579.24 -10273.73c267.93,-115.08 651.86,-120.6 830.16,69.23 110.3,117.46 59.12,311.09 -108.56,444.1 -205.64,163.12 -687.54,208.07 -915.26,65.69 -241.57,-150.98 -75.78,-463.29 193.66,-579.03zm253.81 53.11c447.78,-68.69 555.42,325.14 217.06,437.45 -20.38,6.75 -42.22,5 -57.22,1.27 -40.66,-10.16 -12.11,-34.17 9.7,-46.55 94.1,-53.46 146.38,-133.25 129.98,-194.04 -30.77,-113.96 -164.59,-152.9 -296.08,-149.62 -20.84,0.52 -37.58,-3.57 -45.46,-19.67 -6.94,-14.14 14.75,-24.64 42.03,-28.83z"/>
     <path class="fil0" d="M37159.4 -10271.65c267.93,-115.08 651.86,-120.6 830.16,69.24 110.3,117.45 59.12,311.08 -108.56,444.1 -205.64,163.11 -687.54,208.06 -915.26,65.69 -241.57,-150.98 -75.78,-463.29 193.66,-579.04zm253.81 53.12c447.78,-68.7 555.42,325.13 217.06,437.44 -20.38,6.76 -42.22,5.01 -57.22,1.27 -40.66,-10.16 -12.11,-34.17 9.7,-46.54 94.09,-53.47 146.38,-133.25 129.98,-194.05 -30.77,-113.96 -164.59,-152.9 -296.08,-149.62 -20.85,0.53 -37.58,-3.57 -45.46,-19.66 -6.94,-14.15 14.75,-24.65 42.03,-28.83z"/>
     <path class="fil0" d="M39235.45 -4604.25l-992.17 3.53c27.95,242.79 507.59,254.59 755.67,125.52l171.58 114.46c-374.09,182.84 -856.04,162.85 -1077.72,-13.86 -85.76,-68.36 -126.24,-152.3 -127.71,-237.52 -9.78,-569.24 1314.3,-606.32 1270.35,7.86zm-978.91 -123.87c64.83,-256.76 726.69,-218.08 733.36,1.93l-733.36 -1.93z"/>
     <path class="fil0" d="M48547.19 -4594.18l-992.18 3.54c27.95,242.78 507.59,254.58 755.67,125.52l171.58 114.46c-374.09,182.84 -856.04,162.85 -1077.72,-13.86 -85.76,-68.36 -126.24,-152.3 -127.71,-237.52 -9.78,-569.24 1314.31,-606.33 1270.36,7.85zm-978.91 -123.87c64.82,-256.76 726.68,-218.08 733.35,1.94l-733.35 -1.94z"/>
     <path class="fil0" d="M47093.01 -4606.64c-19.4,221.5 -263.49,387.43 -651.08,384.07 -387.58,-3.36 -632.47,-218.67 -619.34,-421.95 13.15,-203.28 277.99,-397.59 641.04,-397.44 363.06,0.15 648.78,213.81 629.38,435.31zm-273.99 -11.04c-11.04,125.91 -149.81,220.25 -370.15,218.34 -220.35,-1.91 -359.58,-124.31 -352.11,-239.87 7.47,-115.56 158.04,-226.04 364.45,-225.95 206.38,0.09 368.83,121.56 357.8,247.48z"/>
     <path class="fil0" d="M54046.06 -4616.65c-19.4,221.5 -263.49,387.42 -651.07,384.06 -387.59,-3.35 -632.48,-218.66 -619.35,-421.94 13.15,-203.28 277.99,-397.59 641.05,-397.44 363.05,0.15 648.77,213.81 629.37,435.31zm-273.99 -11.04c-11.03,125.91 -149.81,220.25 -370.14,218.34 -220.36,-1.91 -359.59,-124.31 -352.12,-239.88 7.47,-115.56 158.04,-226.03 364.45,-225.94 206.38,0.08 368.83,121.56 357.8,247.48z"/>
     <path class="fil0" d="M56528.63 -4604.25l-992.18 3.53c27.95,242.79 507.59,254.59 755.68,125.52l171.57 114.46c-374.08,182.84 -856.04,162.85 -1077.72,-13.86 -85.75,-68.36 -126.24,-152.3 -127.71,-237.52 -9.78,-569.24 1314.31,-606.32 1270.36,7.86zm-978.91 -123.87c64.83,-256.76 726.69,-218.08 733.35,1.93l-733.35 -1.93z"/>
     <path class="fil0" d="M58600.72 -4604.25l-992.17 3.53c27.94,242.79 507.58,254.59 755.67,125.52l171.57 114.46c-374.08,182.84 -856.03,162.85 -1077.72,-13.86 -85.75,-68.36 -126.24,-152.3 -127.71,-237.52 -9.77,-569.24 1314.31,-606.32 1270.36,7.86zm-978.91 -123.87c64.83,-256.76 726.69,-218.08 733.35,1.93l-733.35 -1.93z"/>
     <path class="fil0" d="M40456.55 -4904.09l6.04 -141.91 243.14 6.84 14.91 781.98 -268.3 -3.15 -3.8 -86.8c-405.48,232.96 -1011.99,94.12 -1026.03,-266.31 -7.69,-196.67 167.56,-403.66 504.41,-432.44 225.18,-19.24 470.01,62.47 529.62,141.79zm-782.27 278.66c3.66,-142.29 178.17,-255 374.2,-254.71 196.04,0.28 415.75,93.68 405.72,257.37 -10.04,163.7 -245.36,246.37 -410.82,249.12 -165.46,2.74 -372.76,-109.49 -369.11,-251.78z"/>
     <path class="fil0" d="M59793.77 -4904.09l6.04 -141.91 243.14 6.84 14.91 781.98 -268.3 -3.15 -3.8 -86.8c-405.48,232.96 -1011.98,94.12 -1026.03,-266.31 -7.68,-196.67 167.56,-403.66 504.42,-432.44 225.17,-19.24 470,62.47 529.61,141.79zm-782.27 278.66c3.66,-142.29 178.17,-255 374.21,-254.71 196.04,0.28 415.74,93.68 405.71,257.37 -10.03,163.7 -245.36,246.37 -410.82,249.12 -165.45,2.74 -372.76,-109.49 -369.11,-251.78z"/>
     <path class="fil0" d="M41301.26 -4886.04l-10.5 -142.08 -269.7 0.42 16.11 795.18 268.31 -3.15 -1.39 -436.54c156,-305.16 688.85,-200.24 692.05,12.42l6.25 412.38 255.28 -4.13c19.34,-268.02 -1.12,-436.92 -45.53,-545.39 -120.29,-293.75 -753.42,-298.67 -910.89,-89.12z"/>
     <path class="fil0" d="M50883.77 -4886.04l-10.51 -142.08 -269.69 0.42 16.11 795.18 268.3 -3.15 -1.39 -436.54c73.17,-135.73 176.37,-182.75 286.52,-182.75 123.99,0 251.9,50.62 255.47,177.74l12.5 444.69 268.3 -3.15c-0.47,-145.51 -0.96,-291.03 -1.39,-436.54 57.68,-273.82 542.79,-216.7 541.99,7.46l-1.51 417.34 281.18 -2.8c6.82,-269.71 5.08,-426.81 -31.47,-540.13 -95.67,-296.59 -783.54,-286.21 -924.75,-78.09 -173.43,-221 -562.79,-208.41 -689.68,-17.62z"/>
     <path class="fil0" d="M54557.9 -4886.04l-10.51 -142.08 -269.69 0.42 16.11 795.18 268.3 -3.15 -1.39 -436.54c176.43,-351.77 467.21,-84.83 527.11,-157.6l94.83 -115.17c-187.14,-136.59 -514.94,-106.21 -624.77,58.94z"/>
     <path class="fil0" d="M44770.85 -4886.04l-0.16 -481.93 -259.35 -6.15 -4.58 1141.61 268.31 -3.15 -1.39 -436.54c156,-305.16 639.74,-200.23 640.3,12.42l1.08 402.48 286.33 -4.13c-0.93,-182.73 38.84,-532.3 -127.23,-652.99 -220.45,-160.21 -679.09,-143.82 -803.31,28.38z"/>
     <path class="fil0" d="M37205.7 -4406.17l-182.06 -111.27c-110.01,35.62 -179.89,66.74 -281.79,86.64 -201.44,39.36 -387.95,33.55 -536.71,-21.89 -235.46,-87.71 -335.61,-276.8 -282.86,-442.39 44.25,-138.75 190.34,-264 408.03,-306.04 214.55,-41.45 467.75,-0.52 656.57,95.86l166.86 -111.58c-69.86,-63.51 -198.09,-116.89 -353.22,-147.85 -382.19,-76.31 -738.77,-7.31 -977.9,201.58 -111.3,97.25 -183.33,218.62 -179.01,349.49 9.31,281.25 220.26,473.92 530.95,547.57 310.68,73.65 716.81,25.52 1031.13,-140.12z"/>
     <polygon class="fil0" points="37721.54,-5318.5 37721.26,-4232.52 37451.24,-4234.18 37445.54,-5320.22 "/>
    </g>
    <path class="fil1" d="M35956.26 -8623.47l7.53 21044.71c-4110.74,2751.73 -9701.33,4132.69 -15405.52,4059.37 -11091.32,-142.56 -19204.03,-5251.55 -20529.53,-11571.49l-28.74 -13532.6 35956.26 0z"/>
   </g>
  </g>
  <polygon class="fil2" points="-0,0 35963.8,0 35963.8,16483.4 -0,16483.4 "/>
 </g>
</svg>