<?xml version="1.0" encoding="UTF-8"?>
<!DOCTYPE svg PUBLIC "-//W3C//DTD SVG 1.1//EN" "http://www.w3.org/Graphics/SVG/1.1/DTD/svg11.dtd">
<!-- Creator: CorelDRAW -->
<svg xmlns="http://www.w3.org/2000/svg" xml:space="preserve" width="360mm" height="258.772mm" version="1.1" style="shape-rendering:geometricPrecision; text-rendering:geometricPrecision; image-rendering:optimizeQuality; fill-rule:evenodd; clip-rule:evenodd"
viewBox="0 0 35963.8 25851.15"
 xmlns:xlink="http://www.w3.org/1999/xlink">
 <defs>
  <style type="text/css">
   <![CDATA[
    .fil2 {fill:none}
    .fil0 {fill:#007CA3}
    .fil1 {fill:#663333}
   ]]>
  </style>
   <clipPath id="id0">
    <path d="M-0 0l35963.8 0 0 25851.15 -35963.8 0 0 -25851.15z"/>
   </clipPath>
 </defs>
 <g id="PowerClip_x0020_Contents">
  <metadata id="CorelCorpID_0Corel-Layer"/>
  <g>
  </g>
  <g style="clip-path:url(#id0)">
   <g>
    <path class="fil0" d="M35956.26 0l7.53 21044.71c-4110.74,2751.73 -9701.33,4132.69 -15405.52,4059.37 -11091.32,-142.56 -19204.03,-5251.55 -20529.53,-11571.49l-28.74 -13532.6 35956.26 0z"/>
    <g id="_105556608237920">
     <path class="fil1" d="M38739.41 -10788.54c168.48,-863.19 320.81,-1939.19 433.89,-2538.04 87.8,-464.92 706.27,-680.54 1035.69,-501.62 331.05,179.79 300.27,558.84 246.6,867.01 -116.85,671.36 -241.66,1375.25 -360.2,2172.54l1009.75 12.64c148.3,-737.82 344.5,-1840.84 456.16,-2489.27 72.98,-424.09 434.55,-606.64 760.6,-606.29 367.43,0.41 634.11,263.57 514.04,993.14 -94.37,573.83 -271.73,1566.1 -372.12,2085.1l1033.45 20.38c432.45,-2549.5 743.93,-3128.12 205.47,-3685.18 -849.23,-789.05 -1949.64,-103.82 -2196.75,261.43 -450.15,-850.44 -1565.38,-844.58 -2142.98,-126.58l53 -411.11 -1046.81 -20.8 -669.33 3956.92 1039.51 9.73z"/>
     <path class="fil1" d="M45393.72 -12218.37c28.28,-299.91 47.29,-424.96 68.29,-603.53 16.86,-145.6 31.34,-237.84 99.78,-374.62 249.51,-498.56 956.96,-975.76 1611.41,-549.47 555.32,418.45 334.56,1311.7 16.96,1684.84 -477.3,560.83 -1465.65,618.57 -1796.44,-157.22zm-267.34 1093.49c962.76,933.71 2656.53,367.17 3235.65,-1092.93 307.85,-775.99 302.71,-1842.26 -457.89,-2351.82 -718.82,-481.54 -1819.23,-208.69 -2177.29,156.19l20.9 -290.68 -1033.3 -32.72 -921.44 5374.97 1053.59 13.96 279.78 -1776.97z"/>
     <path class="fil1" d="M53513.33 -14770.68c-139.18,902.94 -274.42,1695.49 -394.03,2271.15 -286.66,449.28 -1084.92,780.27 -1487.41,429.71 -273.87,-238.55 -43.73,-1218.33 226.36,-2667.57l-1026.93 -10.76c-260.82,1696 -739.86,2845.45 -202.88,3403.11 536.98,557.67 1503.52,489.69 2337.36,-231.37 -132.56,1752.73 -1319.75,1649.88 -2523.47,1262.22l-190.14 980.5c885.21,263.62 1563,226.11 2086.73,94.42 1128.08,-283.64 1445.52,-1468.15 1672.77,-2650.05 36.33,-188.96 79.19,-415.03 131.27,-692.46 249.82,-1329.74 423.54,-1831.72 -629.63,-2188.91z"/>
     <path class="fil1" d="M36370.83 -15232.09c-735.07,-530.15 -1414.5,-720.49 -2000,-700.76 -788.27,26.59 -1861.12,599.36 -2046.71,1419.89 -137.7,608.99 77.86,1097.91 719.99,1345.03 701.32,269.84 1783.8,376.2 1678.06,962.61 -33.23,184.12 -205.43,454.27 -673,523.12 -671.31,98.86 -1426.97,-288.85 -1701.3,-465.02l-674.58 902.22c388.69,262.35 825.88,466.5 1402.36,551.55 576.48,85 1583.38,48.11 2172.24,-421.71 627.49,-500.65 860.99,-1379.12 483.06,-1968.04 -529.45,-824.86 -2088.36,-718.81 -2241.14,-1113.46 -70.27,-181.42 62.38,-518.69 337.27,-636.1 462.57,-197.63 1240.81,-4.95 1875.02,447.8l668.73 -847.14z"/>
     <path class="fil1" d="M44129.1 -7777.06c-148.31,-113.38 -333.51,-176.9 -505.49,-177.99 -227.99,-1.45 -480.39,135.85 -507.59,379.71 -18.28,163.91 95.34,316.86 315.74,357.21 111.59,20.41 257.55,12.37 360.57,47.21 68.83,23.25 127.49,65.37 125.87,148.55 -2.47,127.5 -237.31,148.61 -336.12,144.73 -168.83,-6.64 -294.51,-83.03 -355.15,-168.91l-156.98 188.5c232.86,200.73 456.97,261.63 786.62,193.11 259.75,-53.98 421.14,-384.56 240.73,-596.69 -187.67,-220.69 -642,-73.35 -686.09,-249.45 -35.05,-140.05 63.66,-208.37 204.73,-206.22 123.75,1.91 271.33,64.61 367.99,132.94l145.17 -192.7z"/>
     <path class="fil1" d="M49723.55 -7761.26c-148.32,-113.38 -333.51,-176.9 -505.49,-177.99 -228,-1.45 -480.39,135.84 -507.59,379.7 -18.28,163.91 95.34,316.86 315.74,357.21 111.59,20.42 257.55,12.38 360.56,47.22 68.84,23.25 127.49,65.36 125.87,148.54 -2.46,127.51 -237.3,148.61 -336.11,144.73 -168.83,-6.63 -294.51,-83.02 -355.16,-168.9l-156.98 188.49c232.86,200.74 456.98,261.64 786.63,193.11 259.75,-53.97 421.13,-384.55 240.72,-596.68 -187.66,-220.69 -642,-73.35 -686.09,-249.46 -35.04,-140.04 63.67,-208.37 204.73,-206.21 123.75,1.9 271.33,64.61 368,132.94l145.17 -192.7z"/>
     <path class="fil1" d="M61350.99 -7777.06c-148.32,-113.38 -333.51,-176.9 -505.49,-177.99 -228,-1.45 -480.39,135.85 -507.59,379.71 -18.28,163.91 95.34,316.86 315.74,357.21 111.59,20.41 257.55,12.37 360.57,47.21 68.83,23.25 127.49,65.37 125.87,148.55 -2.47,127.5 -237.31,148.61 -336.12,144.73 -168.83,-6.64 -294.51,-83.03 -355.15,-168.91l-156.98 188.5c232.85,200.73 456.97,261.63 786.62,193.11 259.75,-53.98 421.14,-384.56 240.72,-596.69 -187.66,-220.69 -642,-73.35 -686.09,-249.45 -35.04,-140.05 63.67,-208.37 204.74,-206.22 123.75,1.91 271.33,64.61 367.99,132.94l145.17 -192.7z"/>
     <polygon class="fil1" points="62123.91,-7091.05 61793.43,-7911.25 61477.89,-7911.96 61974.91,-6716.79 61723.24,-6119.85 62011.27,-6117.65 62787.54,-7906.38 62458.94,-7923.84 "/>
     <path class="fil1" d="M63693.97 -14341.12c-954,-918.08 -2901.19,-500.96 -3100.35,671.98 -243.79,1435.78 1773.41,1160.19 1798.54,1707.97 12.95,286.41 -340.17,378.6 -563.38,387.11 -348.93,13.35 -824.05,-90.66 -1209.62,-368.71l-548.09 828.54c285.38,266.78 848.77,432.96 1385.7,461.66 553.03,29.51 1174.67,-92.44 1580.98,-493.15 589.12,-581.12 542.38,-1531.5 -218.42,-1846.08 -801.88,-256.49 -1386.3,-431.55 -1168.49,-754.13 217.81,-322.59 975.2,-169.14 1503.11,170.42l540.04 -765.6z"/>
     <path class="fil1" d="M58198.28 -11653.61l-814.52 -420.75c-1023.41,1047.47 -1997.65,153.91 -1793.04,-649.4 335.27,-1316.28 1524.21,-1481.66 2041.46,-703.12l952.63 -457.68c-511.25,-1445.93 -3494.18,-1470.65 -3986.17,1060.96 -491.98,2531.62 2550.63,2746.53 3599.63,1169.98z"/>
     <polygon class="fil1" points="50532.43,-16152.91 49509.99,-16152.45 48577.7,-10788.9 49618.85,-10782.12 "/>
     <polygon class="fil1" points="60246.07,-14727.41 59196.67,-14737.8 58489.06,-10785.84 59555.03,-10757.09 "/>
     <polygon class="fil1" points="37806.97,-14738.11 36757.83,-14740.4 36075.24,-10788.13 37138.86,-10777.43 "/>
     <path class="fil1" d="M66059.21 -7416.11c-7452.33,6294.56 -20936.17,6771.68 -29766.37,2400.04 -8830.19,-4371.65 -9403.29,-11410.37 -5963.46,-15775.05 -7960.51,6871.18 -3695.55,14915.12 4890.57,18693.99 9451.7,4159.86 24607.51,2903.63 30839.26,-5318.99z"/>
     <path class="fil1" d="M58526.14 -20526.11c-1089.17,303.44 -2681.09,745.09 -3282.21,883.75 -2012.11,464.17 -17761,4375.84 -19967.92,-7.1 -15.07,-328.91 3.63,-525.36 19.04,-859.22 1684.03,1774.73 5919.06,1548.24 7188.02,1190.54 157.34,-44.32 357.24,-94.21 323.94,-307.58 -28.16,-180.67 -249.29,-146.58 -385.92,-150.75 -360.67,-11.01 -694.82,-22.63 -1346.7,20.48 -4022.64,266 -4885.52,-1320.68 -5633.75,-1390.16 277.54,-712.05 861.87,-1110.43 1608.37,-1374.19 482.08,-170.33 1070.37,-310.69 1576.63,-450.39 695.21,-191.84 1222.49,-234.28 1743.12,-312.51 325.61,-48.93 648.67,-111.89 1008.57,-234.13 593.3,-184.92 1062.66,-671.17 1787.68,-996.59 221.82,260.78 485.9,573.82 747.89,818.91 -106.11,219.65 172.4,683.78 608.64,447.69 436.24,-236.09 153.02,-747.37 -65.76,-739.36 -201.09,-267.9 -437.89,-548.91 -654.88,-887.46 304.45,-217.18 743.1,-412.56 1165.69,-722.69 355.91,504.33 697.34,813.09 955.49,1081.17 -89.53,299.67 381.84,689.74 716.38,375.95 334.54,-313.77 -81.77,-765.98 -291.21,-711.7 -294.8,-367.87 -571.79,-678.87 -849.5,-1047.7 242.2,-151.47 475.16,-322.86 810.63,-492.51 323.94,336.78 682.03,774.53 1154.56,1051.3 -61.53,304.74 395.89,637.64 717.85,364.01 321.95,-273.61 39.65,-726.51 -249.89,-718.67 -312.86,-296.46 -774.05,-764.67 -1012.49,-1040.89 284.53,-261.03 493.44,-425.51 872.89,-784.46 364.39,449.02 839.64,874.15 1621.49,1181.32 -18.56,102.69 -52.79,216.27 -42.21,320.42 29.22,287.49 447.06,403.17 676.58,232.86 335.04,-248.63 106.09,-750.96 -289.07,-745.63 -497.79,-585.34 -922.88,-831.6 -1378.66,-1441.57 520.73,-470.75 1342.19,-1032.68 2275.56,-1345 189.94,-63.56 274.32,-24.47 366.57,38.94 334.43,229.81 547.06,792.04 696.26,1309.8 149.99,520.52 -115.22,1763.33 1352.22,2416.53 1467.46,653.19 2819.98,-636.51 3118.56,-893.47 569,-489.69 2244.72,-1961.08 2710.72,-247.88 77.11,283.47 512.79,1373.85 2311.78,2204.05 516.35,238.28 3476.27,1239.53 5451.43,3391.16 654.12,712.54 1228.18,1605.84 1547.38,2522.72 394.25,1132.42 633.48,2925.91 -480.8,4887.82 -477.25,840.31 -1413.21,2243.74 -2198.15,2038.01 -430.97,-112.96 -257.88,-940.77 61.02,-2167.92 400.34,7.77 562.52,22.25 1000.2,28.56 50.31,-248.39 109.82,-683.72 137.34,-932.84 -360.71,-6.15 -538.16,1.13 -972.74,4.15 60.08,-391.62 106.44,-665.9 165.17,-1108.19 -401.03,6.05 -573.31,13.43 -997.75,17.9 -59.27,365.46 -117.03,727.51 -165.49,1087.62 -246.28,3.7 -430.9,-8.2 -683.51,-11.28 -47.27,311.58 -81.29,575.56 -134.81,920.7 300.38,13.85 388.83,15.59 624.55,30.32 -121.88,637.9 -677.72,2691.54 218.05,3008.54 1591.96,590.47 3042.22,-1561.61 3648.2,-2701.97 440.1,-828.19 779.86,-1771.25 880.89,-2718.03 192.4,-1802.95 -514.64,-3390.03 -1277.79,-4488.39 -1742.86,-2508.4 -5114.53,-3914.34 -5282.41,-3979.3 -3017.55,-1168.09 -3128.86,-2413.19 -3142.65,-2453.77 -384.55,-1130.93 -1497.3,-1695.53 -3183.11,-549.19 -652.87,443.97 -1549.07,1415.92 -2278.79,1483.23 -729.73,67.29 -1221.66,-343.13 -1340,-606.32 -293.01,-651.68 -153.82,-707.86 -360.53,-1493.41 -112.17,-426.26 -222.96,-722.79 -473.95,-1092.62 -212.46,-313.03 -436.39,-522.29 -645.31,-642.14 -328.43,-188.39 -547.47,-126.18 -887.08,-32.46 -553.71,152.78 -1339.03,483.13 -2047.19,1088.04 -632.32,-150.48 -877.09,224.19 -834.41,632.92 -333.31,223.63 -606.82,444.75 -788.94,650.94 -50.44,-287.63 -756.77,-343.81 -753.36,537.8 -260.96,200.33 -427.56,295.8 -545.02,366.46 -196.31,-286.19 -464.8,-231.18 -639.56,-46 -114.51,121.31 -179.43,276.16 -139.45,457.85 -376.14,270.81 -607.97,384.94 -911.99,598.31 -31.7,-261.83 -433.42,-331.96 -763.5,-96.33 -201.84,144.05 -391.9,283.98 -274.98,685.19 -926.13,506.02 -1159.84,804.6 -1679.95,911.47 -2838.51,583.31 -5546.52,922.34 -6275.79,2549.45 -177.04,394.98 -304.8,869.94 -377.6,1443.96 43.01,6240.7 17150.89,2470.85 20849.5,1227.15 1343.83,-451.9 2888.02,-1023.11 3544.03,-1350.97 49.78,-24.88 43.44,-81.62 14.99,-126.47 -69.38,-109.45 -183.25,-38.85 -291.13,-8.79z"/>
     <path class="fil1" d="M53763.51 -15369.87c662.16,-72.3 1075.98,-289.47 1355.23,-1055.14 -12.93,887.42 564.02,1236.69 965.01,1430.71 -1024.36,51.6 -1208,653.21 -1386.27,982.69 12.93,-980.57 -723.12,-1249.54 -933.96,-1358.26z"/>
     <path class="fil1" d="M55103.59 -17289.49c242.97,-16.99 687.88,0.3 868.83,-620.49 12.97,514.86 351.87,729.6 571.74,851.18 -579.37,72.29 -668.68,415.16 -803.45,642.17 -7.77,-587.29 -440.6,-771.43 -637.12,-872.87z"/>
     <path class="fil1" d="M56875.05 -17747.93c315.4,29.58 1044.93,-222.18 1225.88,-842.94 -18.08,499.31 289.82,926.2 809.83,1182.32 -739.81,10.15 -1041.29,560.07 -1155.38,828.46 -7.76,-587.28 -487.17,-1081.92 -880.33,-1167.83z"/>
     <path class="fil1" d="M59579.24 -16112.42c267.94,-180.49 651.86,-189.14 830.16,108.58 110.3,184.21 59.12,487.88 -108.56,696.49 -205.64,255.81 -687.54,326.32 -915.26,103.04 -241.57,-236.78 -75.78,-726.59 193.66,-908.11zm253.81 83.3c447.78,-107.74 555.42,509.92 217.06,686.05 -20.37,10.6 -42.22,7.86 -57.22,1.99 -40.66,-15.93 -12.11,-53.59 9.7,-73.01 94.1,-83.84 146.39,-208.96 129.98,-304.32 -30.76,-178.72 -164.59,-239.79 -296.07,-234.65 -20.85,0.83 -37.59,-5.58 -45.47,-30.84 -6.94,-22.18 14.75,-38.64 42.03,-45.21z"/>
     <path class="fil1" d="M37159.4 -16109.15c267.93,-180.49 651.86,-189.14 830.16,108.58 110.3,184.21 59.12,487.88 -108.56,696.49 -205.64,255.81 -687.54,326.31 -915.26,103.04 -241.57,-236.78 -75.78,-726.6 193.66,-908.11zm253.81 83.3c447.78,-107.74 555.42,509.92 217.06,686.05 -20.38,10.6 -42.22,7.86 -57.22,1.99 -40.66,-15.93 -12.11,-53.59 9.7,-73.01 94.1,-83.84 146.38,-208.97 129.98,-304.32 -30.77,-178.72 -164.59,-239.79 -296.08,-234.65 -20.84,0.83 -37.58,-5.58 -45.46,-30.84 -6.94,-22.18 14.75,-38.64 42.03,-45.21z"/>
     <path class="fil1" d="M39235.46 -7220.89l-992.18 5.53c27.95,380.76 507.59,399.28 755.67,196.86l171.58 179.51c-374.09,286.75 -856.04,255.4 -1077.72,-21.73 -85.76,-107.21 -126.24,-238.85 -127.71,-372.51 -9.78,-892.74 1314.3,-950.9 1270.36,12.33zm-978.92 -194.26c64.83,-402.68 726.69,-342.02 733.36,3.03l-733.36 -3.03z"/>
     <path class="fil1" d="M48547.19 -7205.1l-992.18 5.53c27.95,380.77 507.59,399.29 755.67,196.87l171.58 179.51c-374.08,286.75 -856.04,255.4 -1077.72,-21.73 -85.76,-107.21 -126.24,-238.85 -127.71,-372.51 -9.78,-892.74 1314.31,-950.91 1270.36,12.32zm-978.91 -194.25c64.82,-402.68 726.69,-342.02 733.35,3.03l-733.35 -3.03z"/>
     <path class="fil1" d="M47093.01 -7224.65c-19.4,347.37 -263.49,607.6 -651.08,602.34 -387.58,-5.26 -632.47,-342.93 -619.34,-661.74 13.15,-318.8 277.99,-623.54 641.05,-623.3 363.05,0.23 648.77,335.32 629.37,682.7zm-273.99 -17.31c-11.03,197.47 -149.81,345.42 -370.15,342.43 -220.35,-2.99 -359.58,-194.96 -352.11,-376.2 7.47,-181.24 158.04,-354.49 364.45,-354.35 206.38,0.14 368.83,190.64 357.8,388.13z"/>
     <path class="fil1" d="M54046.06 -7240.35c-19.4,347.37 -263.49,607.6 -651.07,602.34 -387.59,-5.26 -632.48,-342.94 -619.34,-661.74 13.14,-318.8 277.98,-623.54 641.04,-623.3 363.05,0.23 648.77,335.32 629.37,682.7zm-273.99 -17.31c-11.03,197.47 -149.81,345.42 -370.14,342.43 -220.36,-2.99 -359.58,-194.96 -352.12,-376.2 7.47,-181.24 158.05,-354.49 364.45,-354.35 206.38,0.14 368.83,190.64 357.8,388.13z"/>
     <path class="fil1" d="M56528.63 -7220.89l-992.17 5.53c27.94,380.76 507.59,399.28 755.67,196.86l171.58 179.51c-374.09,286.75 -856.04,255.4 -1077.73,-21.73 -85.75,-107.21 -126.24,-238.85 -127.7,-372.51 -9.78,-892.74 1314.3,-950.9 1270.35,12.33zm-978.91 -194.26c64.83,-402.68 726.69,-342.02 733.35,3.03l-733.35 -3.03z"/>
     <path class="fil1" d="M58600.72 -7220.89l-992.17 5.53c27.94,380.76 507.59,399.28 755.67,196.86l171.58 179.51c-374.09,286.75 -856.04,255.4 -1077.73,-21.73 -85.75,-107.21 -126.24,-238.85 -127.7,-372.51 -9.78,-892.74 1314.3,-950.9 1270.35,12.33zm-978.91 -194.26c64.83,-402.68 726.69,-342.02 733.35,3.03l-733.35 -3.03z"/>
     <path class="fil1" d="M40456.55 -7691.15l6.04 -222.57 243.14 10.74 14.91 1226.4 -268.3 -4.93 -3.8 -136.14c-405.48,365.35 -1011.99,147.6 -1026.03,-417.66 -7.69,-308.44 167.56,-633.07 504.42,-678.21 225.17,-30.18 470,97.96 529.61,222.37zm-782.27 437.02c3.66,-223.15 178.17,-399.92 374.21,-399.47 196.03,0.45 415.74,146.91 405.71,403.63 -10.03,256.73 -245.36,386.4 -410.82,390.7 -165.45,4.31 -372.76,-171.71 -369.11,-394.86z"/>
     <path class="fil1" d="M59793.77 -7691.15l6.04 -222.57 243.14 10.74 14.92 1226.4 -268.31 -4.93 -3.8 -136.14c-405.47,365.35 -1011.98,147.6 -1026.03,-417.66 -7.68,-308.44 167.57,-633.07 504.42,-678.21 225.18,-30.18 470,97.96 529.61,222.37zm-782.27 437.02c3.67,-223.15 178.17,-399.92 374.21,-399.47 196.04,0.45 415.74,146.91 405.71,403.63 -10.03,256.73 -245.36,386.4 -410.82,390.7 -165.45,4.31 -372.76,-171.71 -369.11,-394.86z"/>
     <path class="fil1" d="M41301.26 -7662.83l-10.5 -222.84 -269.7 0.66 16.12 1247.08 268.3 -4.93 -1.39 -684.64c156.01,-478.58 688.85,-314.02 692.05,19.48l6.25 646.76 255.28 -6.47c19.34,-420.35 -1.12,-685.23 -45.52,-855.36 -120.3,-460.69 -753.42,-468.39 -910.9,-139.75z"/>
     <path class="fil1" d="M50883.77 -7662.83l-10.51 -222.84 -269.69 0.66 16.11 1247.08 268.31 -4.93 -1.39 -684.64c73.16,-212.86 176.36,-286.59 286.51,-286.59 123.99,0 251.9,79.38 255.47,278.75l12.5 697.41 268.3 -4.93c-0.47,-228.21 -0.95,-456.43 -1.39,-684.64 57.68,-429.44 542.79,-339.85 541.99,11.72l-1.51 654.52 281.18 -4.41c6.82,-422.98 5.08,-669.37 -31.47,-847.08 -95.67,-465.15 -783.54,-448.88 -924.74,-122.47 -173.44,-346.59 -562.8,-326.86 -689.69,-27.63z"/>
     <path class="fil1" d="M54557.9 -7662.83l-10.51 -222.84 -269.69 0.66 16.11 1247.08 268.31 -4.93 -1.39 -684.64c176.42,-551.66 467.2,-133.05 527.1,-247.16l94.83 -180.63c-187.14,-214.21 -514.94,-166.57 -624.77,92.45z"/>
     <path class="fil1" d="M44770.85 -7662.83l-0.16 -755.83 -259.35 -9.66 -4.58 1790.4 268.31 -4.93 -1.39 -684.64c156,-478.58 639.74,-314 640.3,19.48l1.08 631.22 286.34 -6.47c-0.94,-286.57 38.84,-834.81 -127.24,-1024.09 -220.45,-251.27 -679.09,-225.55 -803.31,44.52z"/>
     <path class="fil1" d="M37205.7 -6910.24l-182.06 -174.51c-110.01,55.87 -179.89,104.67 -281.79,135.88 -201.44,61.73 -387.95,52.61 -536.7,-34.33 -235.47,-137.56 -335.62,-434.1 -282.86,-693.81 44.24,-217.61 190.33,-414.04 408.02,-479.97 214.56,-65.01 467.75,-0.82 656.57,150.34l166.86 -174.98c-69.86,-99.6 -198.09,-183.33 -353.22,-231.89 -382.19,-119.67 -738.77,-11.46 -977.9,316.14 -111.3,152.53 -183.33,342.85 -179.01,548.11 9.31,441.08 220.26,743.25 530.95,858.76 310.69,115.5 716.81,40.03 1031.13,-219.74z"/>
     <polygon class="fil1" points="37721.54,-8341.05 37721.26,-6637.92 37451.24,-6640.52 37445.54,-8343.77 "/>
    </g>
   </g>
  </g>
  <polygon class="fil2" points="-0,0 35963.8,0 35963.8,25851.15 -0,25851.15 "/>
 </g>
</svg>
