<?xml version="1.0" encoding="UTF-8"?>
<!DOCTYPE svg PUBLIC "-//W3C//DTD SVG 1.1//EN" "http://www.w3.org/Graphics/SVG/1.1/DTD/svg11.dtd">
<!-- Creator: CorelDRAW -->
<svg xmlns="http://www.w3.org/2000/svg" xml:space="preserve" width="136.292mm" height="95.6993mm" version="1.1" style="shape-rendering:geometricPrecision; text-rendering:geometricPrecision; image-rendering:optimizeQuality; fill-rule:evenodd; clip-rule:evenodd"
viewBox="0 0 13593 9544.54"
 xmlns:xlink="http://www.w3.org/1999/xlink">
 <defs>
  <style type="text/css">
   <![CDATA[
    .fil0 {fill:white}
   ]]>
  </style>
 </defs>
 <g id="Layer_x0020_1">
  <metadata id="CorelCorpID_0Corel-Layer"/>
  <g id="_105553856971776">
   <path class="fil0" d="M3969.89 6083.78c52.98,-271.42 100.87,-609.75 136.43,-798.05 27.62,-146.18 222.08,-213.98 325.66,-157.72 104.08,56.53 94.41,175.71 77.53,272.61 -36.74,211.1 -75.99,432.42 -113.26,683.11l317.51 3.98c46.63,-231.99 108.32,-578.82 143.43,-782.71 22.95,-133.36 136.64,-190.75 239.15,-190.63 115.53,0.12 199.39,82.87 161.64,312.27 -29.68,180.43 -85.44,492.43 -117.01,655.63l324.95 6.4c135.98,-801.65 233.92,-983.58 64.61,-1158.74 -267.02,-248.1 -613.03,-32.64 -690.72,82.2 -141.54,-267.41 -492.21,-265.56 -673.83,-39.8l16.67 -129.27 -329.14 -6.53 -210.46 1244.18 326.85 3.06z"/>
   <path class="fil0" d="M6062.23 5634.19c8.9,-94.31 14.87,-133.62 21.47,-189.78 5.31,-45.78 9.85,-74.78 31.38,-117.8 78.45,-156.76 300.89,-306.8 506.67,-172.77 174.62,131.58 105.2,412.44 5.34,529.77 -150.08,176.34 -460.84,194.5 -564.86,-49.43zm-84.07 343.83c302.72,293.59 835.3,115.45 1017.39,-343.66 96.8,-243.99 95.19,-579.26 -143.97,-739.48 -226.02,-151.42 -572.03,-65.63 -684.61,49.11l6.56 -91.4 -324.9 -10.29 -289.73 1690.06 331.28 4.39 87.97 -558.73z"/>
   <path class="fil0" d="M8615.3 4831.66c-43.76,283.91 -86.29,533.12 -123.9,714.13 -90.13,141.26 -341.13,245.34 -467.7,135.11 -86.11,-75.01 -13.74,-383.08 71.18,-838.78l-322.9 -3.38c-82,533.28 -232.63,894.7 -63.79,1070.05 168.85,175.35 472.76,153.97 734.95,-72.75 -41.68,551.11 -414.98,518.77 -793.46,396.87l-59.79 308.31c278.34,82.89 491.46,71.09 656.13,29.69 354.71,-89.19 454.52,-461.64 525.97,-833.26 11.43,-59.42 24.9,-130.5 41.28,-217.73 78.55,-418.12 133.18,-575.96 -197.97,-688.27z"/>
   <path class="fil0" d="M3225.13 4686.58c-231.13,-166.7 -444.76,-226.55 -628.86,-220.35 -247.86,8.37 -585.2,188.46 -643.56,446.46 -43.29,191.49 24.48,345.22 226.39,422.93 220.52,84.84 560.89,118.29 527.64,302.67 -10.45,57.9 -64.59,142.84 -211.62,164.48 -211.08,31.09 -448.69,-90.82 -534.94,-146.22l-212.12 283.7c122.21,82.49 259.69,146.68 440.95,173.43 181.27,26.73 497.87,15.12 683.02,-132.6 197.31,-157.42 270.73,-433.65 151.9,-618.81 -166.48,-259.37 -656.64,-226.02 -704.69,-350.11 -22.1,-57.05 19.61,-163.1 106.05,-200.02 145.44,-62.13 390.15,-1.55 589.56,140.81l210.27 -266.36z"/>
   <path class="fil0" d="M5664.58 7030.68c-46.64,-35.65 -104.86,-55.62 -158.94,-55.96 -71.69,-0.46 -151.05,42.72 -159.61,119.38 -5.74,51.54 29.98,99.63 99.28,112.32 35.09,6.42 80.98,3.89 113.38,14.85 21.64,7.31 40.08,20.56 39.57,46.71 -0.78,40.09 -74.61,46.73 -105.69,45.51 -53.08,-2.08 -92.6,-26.1 -111.67,-53.11l-49.36 59.27c73.22,63.11 143.69,82.26 247.34,60.72 81.67,-16.97 132.42,-120.92 75.69,-187.62 -59,-69.39 -201.86,-23.06 -215.73,-78.43 -11.02,-44.04 20.02,-65.53 64.38,-64.85 38.91,0.6 85.31,20.32 115.7,41.8l45.65 -60.59z"/>
   <path class="fil0" d="M7423.66 7035.65c-46.64,-35.65 -104.87,-55.62 -158.95,-55.96 -71.69,-0.46 -151.05,42.72 -159.6,119.39 -5.75,51.53 29.98,99.63 99.28,112.31 35.09,6.42 80.98,3.9 113.37,14.85 21.65,7.31 40.09,20.56 39.58,46.71 -0.78,40.09 -74.62,46.73 -105.69,45.51 -53.09,-2.08 -92.6,-26.1 -111.67,-53.11l-49.36 59.27c73.22,63.11 143.69,82.26 247.34,60.72 81.67,-16.97 132.42,-120.92 75.69,-187.62 -59.01,-69.39 -201.87,-23.06 -215.73,-78.43 -11.02,-44.03 20.02,-65.52 64.37,-64.84 38.92,0.59 85.31,20.32 115.71,41.8l45.65 -60.6z"/>
   <path class="fil0" d="M11079.71 7030.68c-46.64,-35.65 -104.87,-55.62 -158.95,-55.96 -71.69,-0.46 -151.05,42.72 -159.61,119.38 -5.74,51.54 29.98,99.63 99.29,112.32 35.09,6.42 80.98,3.89 113.37,14.85 21.64,7.31 40.09,20.56 39.58,46.71 -0.78,40.09 -74.62,46.73 -105.69,45.51 -53.09,-2.08 -92.6,-26.1 -111.67,-53.11l-49.36 59.27c73.22,63.11 143.69,82.26 247.33,60.72 81.67,-16.97 132.42,-120.92 75.7,-187.62 -59.01,-69.39 -201.87,-23.06 -215.74,-78.43 -11.02,-44.04 20.02,-65.53 64.38,-64.85 38.91,0.6 85.31,20.32 115.71,41.8l45.65 -60.59z"/>
   <polygon class="fil0" points="11322.74,7246.39 11218.82,6988.49 11119.6,6988.26 11275.89,7364.06 11196.75,7551.76 11287.32,7552.45 11531.41,6990.02 11428.08,6984.53 "/>
   <path class="fil0" d="M11816.42 4966.73c-299.97,-288.67 -912.23,-157.52 -974.86,211.29 -76.66,451.46 557.62,364.8 565.53,537.04 4.07,90.06 -106.97,119.04 -177.15,121.73 -109.72,4.2 -259.11,-28.51 -380.35,-115.94l-172.33 260.52c89.73,83.89 266.88,136.15 435.7,145.16 173.9,9.28 369.36,-29.06 497.12,-155.06 185.24,-182.72 170.54,-481.56 -68.68,-580.48 -252.14,-80.65 -435.9,-135.69 -367.42,-237.12 68.49,-101.43 306.63,-53.19 472.63,53.59l169.81 -240.73z"/>
   <path class="fil0" d="M10088.39 5811.77l-256.11 -132.3c-321.79,329.35 -628.12,48.39 -563.78,-204.2 105.42,-413.88 479.26,-465.88 641.9,-221.08l299.53 -143.91c-160.75,-454.65 -1098.69,-462.42 -1253.38,333.6 -154.7,796.02 802,863.59 1131.83,367.88z"/>
   <polygon class="fil0" points="7678,4397.05 7356.51,4397.18 7063.37,6083.66 7390.74,6085.79 "/>
   <polygon class="fil0" points="10732.28,4845.26 10402.32,4842 10179.82,6084.63 10515,6093.66 "/>
   <polygon class="fil0" points="3676.7,4841.9 3346.82,4841.18 3132.19,6083.9 3466.63,6087.27 "/>
   <path class="fil0" d="M12560.12 7144.18c-2343.26,1979.21 -6583.01,2129.23 -9359.51,754.64 -2776.51,-1374.58 -2956.71,-3587.79 -1875.11,-4960.19 -2503.03,2160.52 -1162,4689.8 1537.76,5878.01 2971.92,1307.99 7737.4,912.99 9696.86,-1672.46z"/>
   <path class="fil0" d="M10191.48 3021.97c-342.47,95.41 -843.02,234.28 -1032.04,277.87 -632.67,145.95 -5584.64,1375.91 -6278.56,-2.22 -4.74,-103.42 1.15,-165.19 5.99,-270.17 529.51,558.04 1861.14,486.82 2260.15,374.34 49.47,-13.93 112.32,-29.62 101.85,-96.71 -8.85,-56.81 -78.38,-46.09 -121.34,-47.39 -113.41,-3.46 -218.48,-7.12 -423.45,6.43 -1264.85,83.64 -1536.16,-415.27 -1771.43,-437.11 87.27,-223.89 271,-349.16 505.72,-432.09 151.58,-53.56 336.55,-97.69 495.74,-141.61 218.6,-60.32 384.39,-73.66 548.09,-98.27 102.39,-15.38 203.96,-35.18 317.13,-73.61 186.55,-58.15 334.13,-211.04 562.1,-313.36 69.74,81.99 152.78,180.42 235.16,257.49 -33.37,69.07 54.21,215 191.37,140.77 137.17,-74.23 48.11,-234.99 -20.68,-232.47 -63.23,-84.24 -137.68,-172.59 -205.91,-279.05 95.73,-68.29 233.65,-129.72 366.53,-227.24 111.91,158.58 219.27,255.66 300.43,339.96 -28.15,94.22 120.06,216.87 225.26,118.21 105.19,-98.66 -25.71,-240.85 -91.57,-223.77 -92.7,-115.67 -179.79,-213.46 -267.12,-329.43 76.16,-47.62 149.41,-101.52 254.89,-154.86 101.86,105.89 214.46,243.53 363.03,330.56 -19.35,95.82 124.48,200.5 225.71,114.46 101.23,-86.03 12.47,-228.44 -78.57,-225.97 -98.37,-93.22 -243.38,-240.44 -318.36,-327.29 89.47,-82.08 155.16,-133.79 274.47,-246.66 114.58,141.18 264.01,274.86 509.84,371.44 -5.83,32.29 -16.6,68.01 -13.26,100.75 9.19,90.4 140.57,126.77 212.73,73.22 105.35,-78.17 33.36,-236.12 -90.89,-234.45 -156.52,-184.05 -290.19,-261.48 -433.5,-453.27 163.73,-148.02 422.03,-324.71 715.51,-422.92 59.72,-19.98 86.26,-7.69 115.26,12.25 105.16,72.26 172.01,249.05 218.93,411.84 47.15,163.66 -36.23,554.45 425.18,759.83 461.42,205.39 886.69,-200.14 980.57,-280.93 178.91,-153.97 705.81,-616.62 852.34,-77.94 24.25,89.13 161.24,431.98 726.9,693.03 162.36,74.93 1093.05,389.75 1714.11,1066.29 205.67,224.04 386.18,504.93 486.55,793.22 123.97,356.07 199.19,920 -151.18,1536.89 -150.06,264.22 -444.36,705.5 -691.17,640.82 -135.51,-35.52 -81.08,-295.81 19.19,-681.67 125.88,2.44 176.88,7 314.49,8.99 15.82,-78.1 34.54,-214.99 43.19,-293.32 -113.42,-1.93 -169.21,0.36 -305.86,1.31 18.89,-123.14 33.47,-209.38 51.93,-348.45 -126.09,1.9 -180.27,4.22 -313.72,5.63 -18.64,114.91 -36.8,228.75 -52.04,341.98 -77.44,1.17 -135.49,-2.57 -214.92,-3.54 -14.86,97.97 -25.56,180.97 -42.39,289.5 94.45,4.35 122.25,4.9 196.38,9.52 -38.32,200.58 -213.09,846.31 68.56,945.99 500.57,185.66 956.58,-491.02 1147.12,-849.59 138.38,-260.41 245.21,-556.94 276.97,-854.64 60.5,-566.9 -161.82,-1065.93 -401.77,-1411.3 -548.01,-788.72 -1608.18,-1230.8 -1660.96,-1251.22 -948.82,-367.29 -983.82,-758.78 -988.15,-771.55 -120.92,-355.6 -470.8,-533.13 -1000.88,-172.68 -205.28,139.6 -487.07,445.22 -716.52,466.37 -229.44,21.16 -384.13,-107.89 -421.33,-190.64 -92.13,-204.91 -48.37,-222.57 -113.37,-469.57 -35.27,-134.03 -70.1,-227.28 -149.02,-343.56 -66.8,-98.43 -137.22,-164.23 -202.91,-201.91 -103.27,-59.23 -172.14,-39.67 -278.93,-10.2 -174.1,48.03 -421.03,151.92 -643.7,342.11 -198.82,-47.31 -275.79,70.5 -262.36,199.01 -104.81,70.32 -190.81,139.85 -248.07,204.69 -15.86,-90.44 -237.96,-108.11 -236.88,169.1 -82.05,62.99 -134.44,93.01 -171.37,115.22 -61.73,-89.99 -146.15,-72.69 -201.1,-14.46 -36,38.14 -56.42,86.83 -43.84,143.96 -118.28,85.15 -191.17,121.04 -286.77,188.13 -9.96,-82.32 -136.28,-104.37 -240.07,-30.29 -63.46,45.3 -123.22,89.29 -86.46,215.45 -291.21,159.11 -364.69,252.99 -528.23,286.6 -892.53,183.41 -1744.01,290.01 -1973.32,801.63 -55.66,124.2 -95.84,273.54 -118.72,454.02 13.52,1962.28 5392.8,776.92 6555.75,385.86 422.55,-142.09 908.09,-321.7 1114.37,-424.79 15.65,-7.83 13.65,-25.66 4.71,-39.76 -21.81,-34.42 -57.62,-12.22 -91.54,-2.76z"/>
   <path class="fil0" d="M8693.96 4643.26c208.21,-22.74 338.32,-91.02 426.13,-331.78 -4.06,279.04 177.35,388.86 303.43,449.86 -322.09,16.23 -379.84,205.39 -435.89,308.99 4.06,-308.32 -227.38,-392.9 -293.67,-427.07z"/>
   <path class="fil0" d="M9115.33 4039.67c76.39,-5.35 216.28,0.1 273.18,-195.1 4.08,161.89 110.64,229.41 179.77,267.64 -182.17,22.73 -210.25,130.54 -252.63,201.92 -2.44,-184.66 -138.54,-242.56 -200.33,-274.46z"/>
   <path class="fil0" d="M9672.32 3895.52c99.18,9.3 328.56,-69.86 385.45,-265.06 -5.68,157 91.13,291.23 254.64,371.76 -232.62,3.19 -327.42,176.1 -363.29,260.5 -2.43,-184.66 -153.18,-340.2 -276.8,-367.2z"/>
   <path class="fil0" d="M10522.61 4409.77c84.25,-56.75 204.96,-59.47 261.03,34.15 34.69,57.92 18.59,153.4 -34.13,219 -64.66,80.44 -216.19,102.6 -287.78,32.39 -75.96,-74.45 -23.84,-228.46 60.89,-285.54zm79.81 26.19c140.8,-33.87 174.65,160.33 68.25,215.72 -6.4,3.33 -13.27,2.47 -17.99,0.63 -12.79,-5.01 -3.8,-16.85 3.05,-22.95 29.58,-26.37 46.03,-65.72 40.87,-95.7 -9.67,-56.19 -51.75,-75.4 -93.1,-73.78 -6.55,0.26 -11.82,-1.76 -14.29,-9.69 -2.18,-6.97 4.64,-12.15 13.21,-14.22z"/>
   <path class="fil0" d="M3473.09 4410.8c84.25,-56.75 204.96,-59.47 261.03,34.15 34.68,57.92 18.59,153.4 -34.14,219 -64.66,80.44 -216.18,102.6 -287.78,32.39 -75.96,-74.45 -23.83,-228.46 60.9,-285.54zm79.8 26.19c140.81,-33.87 174.65,160.33 68.26,215.72 -6.41,3.33 -13.27,2.47 -17.99,0.63 -12.79,-5.01 -3.81,-16.85 3.05,-22.96 29.58,-26.36 46.03,-65.71 40.86,-95.69 -9.67,-56.19 -51.75,-75.4 -93.09,-73.78 -6.55,0.26 -11.82,-1.76 -14.3,-9.69 -2.17,-6.97 4.64,-12.15 13.21,-14.22z"/>
   <path class="fil0" d="M4125.87 7205.56l-311.97 1.75c8.79,119.72 159.61,125.55 237.61,61.9l53.95 56.45c-117.63,90.16 -269.16,80.31 -338.87,-6.83 -26.97,-33.71 -39.69,-75.1 -40.15,-117.13 -3.08,-280.71 413.26,-298.99 399.44,3.87zm-307.8 -61.08c20.39,-126.61 228.49,-107.54 230.59,0.95l-230.59 -0.95z"/>
   <path class="fil0" d="M7053.78 7210.52l-311.97 1.75c8.79,119.72 159.6,125.55 237.6,61.9l53.96 56.45c-117.63,90.16 -269.16,80.31 -338.87,-6.83 -26.97,-33.71 -39.69,-75.1 -40.16,-117.13 -3.07,-280.7 413.26,-298.99 399.45,3.87zm-307.8 -61.08c20.39,-126.61 228.49,-107.54 230.59,0.96l-230.59 -0.96z"/>
   <path class="fil0" d="M6596.53 7204.38c-6.1,109.23 -82.85,191.05 -204.72,189.4 -121.88,-1.66 -198.87,-107.83 -194.74,-208.08 4.13,-100.23 87.41,-196.06 201.56,-195.99 114.16,0.08 204,105.44 197.89,214.67zm-86.15 -5.45c-3.47,62.09 -47.1,108.61 -116.38,107.67 -69.29,-0.94 -113.07,-61.31 -110.72,-118.3 2.34,-56.98 49.69,-111.46 114.6,-111.41 64.89,0.04 115.97,59.94 112.5,122.04z"/>
   <path class="fil0" d="M8782.8 7199.44c-6.09,109.22 -82.85,191.05 -204.72,189.4 -121.88,-1.66 -198.87,-107.83 -194.74,-208.08 4.13,-100.24 87.41,-196.06 201.56,-195.99 114.16,0.08 204,105.44 197.89,214.67zm-86.15 -5.45c-3.47,62.09 -47.1,108.61 -116.38,107.67 -69.29,-0.95 -113.07,-61.31 -110.72,-118.3 2.34,-56.99 49.69,-111.46 114.6,-111.41 64.89,0.04 115.97,59.94 112.5,122.04z"/>
   <path class="fil0" d="M9563.4 7205.56l-311.97 1.75c8.79,119.72 159.6,125.55 237.61,61.9l53.95 56.45c-117.63,90.16 -269.16,80.31 -338.87,-6.83 -26.97,-33.71 -39.69,-75.1 -40.16,-117.13 -3.07,-280.71 413.26,-298.99 399.45,3.87zm-307.8 -61.08c20.39,-126.61 228.49,-107.54 230.59,0.95l-230.59 -0.95z"/>
   <path class="fil0" d="M10214.93 7205.56l-311.97 1.75c8.79,119.72 159.61,125.55 237.61,61.9l53.95 56.45c-117.63,90.16 -269.16,80.31 -338.87,-6.83 -26.97,-33.71 -39.69,-75.1 -40.15,-117.13 -3.07,-280.71 413.26,-298.99 399.44,3.87zm-307.8 -61.08c20.39,-126.61 228.49,-107.54 230.59,0.95l-230.59 -0.95z"/>
   <path class="fil0" d="M4509.82 7057.7l1.9 -69.98 76.45 3.38 4.7 385.61 -84.37 -1.56 -1.2 -42.8c-127.49,114.87 -318.2,46.41 -322.61,-131.33 -2.42,-96.98 52.68,-199.06 158.6,-213.25 70.81,-9.48 147.79,30.81 166.53,69.92zm-245.97 137.41c1.15,-70.16 56.02,-125.76 117.66,-125.61 61.65,0.14 130.73,46.19 127.57,126.91 -3.15,80.73 -77.14,121.5 -129.18,122.84 -52.02,1.36 -117.2,-53.99 -116.05,-124.15z"/>
   <path class="fil0" d="M10590.06 7057.7l1.9 -69.98 76.45 3.38 4.7 385.61 -84.37 -1.56 -1.2 -42.8c-127.49,114.87 -318.2,46.41 -322.61,-131.33 -2.42,-96.98 52.68,-199.06 158.6,-213.25 70.81,-9.48 147.79,30.81 166.53,69.92zm-245.97 137.41c1.15,-70.16 56.02,-125.76 117.66,-125.61 61.65,0.14 130.73,46.19 127.57,126.91 -3.15,80.73 -77.14,121.5 -129.18,122.84 -52.02,1.36 -117.21,-53.99 -116.05,-124.15z"/>
   <path class="fil0" d="M4775.42 7066.6l-3.3 -70.07 -84.79 0.21 5.07 392.13 84.37 -1.56 -0.44 -215.27c49.05,-150.48 216.59,-98.74 217.6,6.12l1.96 203.36 80.28 -2.03c6.07,-132.17 -0.36,-215.46 -14.32,-268.94 -37.82,-144.86 -236.9,-147.28 -286.42,-43.94z"/>
   <path class="fil0" d="M7788.47 7066.6l-3.3 -70.07 -84.8 0.21 5.07 392.13 84.37 -1.56 -0.44 -215.27c23.01,-66.93 55.45,-90.11 90.09,-90.11 38.99,0 79.2,24.95 80.33,87.65l3.93 219.29 84.37 -1.56c-0.15,-71.75 -0.3,-143.51 -0.44,-215.27 18.14,-135.03 170.68,-106.86 170.43,3.68l-0.48 205.8 88.41 -1.38c2.14,-133.01 1.6,-210.47 -9.89,-266.35 -30.09,-146.26 -246.37,-141.14 -290.78,-38.51 -54.53,-108.98 -176.96,-102.78 -216.85,-8.69z"/>
   <path class="fil0" d="M8943.74 7066.6l-3.31 -70.07 -84.79 0.21 5.07 392.13 84.37 -1.56 -0.44 -215.27c55.47,-173.46 146.9,-41.84 165.74,-77.71l29.82 -56.8c-58.84,-67.35 -161.92,-52.37 -196.45,29.07z"/>
   <path class="fil0" d="M5866.38 7066.6l-0.05 -237.66 -81.55 -3.04 -1.44 562.96 84.37 -1.56 -0.44 -215.27c49.05,-150.48 201.15,-98.74 201.33,6.12l0.34 198.48 90.03 -2.03c-0.3,-90.11 12.21,-262.5 -40,-322.01 -69.33,-79.01 -213.53,-70.92 -252.59,14z"/>
   <path class="fil0" d="M3487.64 7303.24l-57.25 -54.87c-34.59,17.57 -56.56,32.91 -88.59,42.73 -63.34,19.41 -121.99,16.55 -168.76,-10.79 -74.04,-43.25 -105.53,-136.5 -88.94,-218.16 13.91,-68.42 59.85,-130.18 128.3,-150.92 67.46,-20.44 147.08,-0.25 206.45,47.27l52.46 -55.01c-21.96,-31.33 -62.28,-57.65 -111.06,-72.92 -120.17,-37.63 -232.29,-3.61 -307.48,99.41 -35,47.95 -57.65,107.8 -56.28,172.34 2.92,138.69 69.26,233.7 166.95,270.02 97.68,36.31 225.38,12.59 324.22,-69.1z"/>
   <polygon class="fil0" points="3649.84,6853.34 3649.75,7388.87 3564.85,7388.05 3563.06,6852.49 "/>
  </g>
 </g>
</svg>
