<?xml version="1.0" encoding="UTF-8"?>
<!DOCTYPE svg PUBLIC "-//W3C//DTD SVG 1.1//EN" "http://www.w3.org/Graphics/SVG/1.1/DTD/svg11.dtd">
<!-- Creator: CorelDRAW -->
<svg xmlns="http://www.w3.org/2000/svg" xml:space="preserve" width="640.2mm" height="640.2mm" version="1.1" style="shape-rendering:geometricPrecision; text-rendering:geometricPrecision; image-rendering:optimizeQuality; fill-rule:evenodd; clip-rule:evenodd"
viewBox="0 0 10444.16 10444.16"
 xmlns:xlink="http://www.w3.org/1999/xlink">
 <defs>
  <style type="text/css">
   <![CDATA[
    .str0 {stroke:black;stroke-width:3.26;stroke-miterlimit:22.9256}
    .fil0 {fill:black}
    .fil2 {fill:#25F4EE}
    .fil1 {fill:#FE2C55}
    .fil3 {fill:white}
   ]]>
  </style>
 </defs>
 <g id="Layer_x0020_1">
  <metadata id="CorelCorpID_0Corel-Layer"/>
  <rect class="fil0 str0" x="1.63" y="1.63" width="10440.9" height="10440.9" rx="1223.54" ry="1108.46"/>
  <g id="_105555337032224">
   <path class="fil1" d="M7273.23 2822.69c-289.73,-329.83 -449.79,-754.38 -449.79,-1193.5 0,-0.22 0,-0.88 0,-1.1l-350.73 -0.02c91.25,491.06 381.06,923.77 800.46,1194.72l0.07 -0.1zm-3245.46 2584.52c-609.12,3.17 -1100.5,499.49 -1097.33,1108.61 2.01,407.34 228.66,780.64 589.03,970.39 -356.38,-492.09 -246.4,-1180.17 245.69,-1536.89 187.49,-135.71 413.4,-209 644.95,-209 0.4,0 1.08,0 1.48,0 110.33,1.41 219.96,18.68 325.35,51.11l0 -1337.03c-107.51,-16.21 -216.43,-24.67 -325.35,-25.38l-58.46 0 0 1016.61c-106.1,-28.91 -215.73,-41.6 -325.36,-38.42l-0 0z"/>
   <g>
    <path class="fil1" d="M8266.57 3414.54l0 1016.61c-654.37,-1.13 -1292.28,-208.95 -1822.08,-592.22l0 2670.89c-2.82,1332.8 -1083.93,2411.8 -2416.73,2411.8 -1.32,0.02 -3.07,0.02 -4.53,0.02 -493.22,0 -975.06,-152.93 -1377.8,-437.18 906.98,975.37 2432.95,1031.06 3408.66,124.08 490.32,-455.68 769.36,-1095.88 769.36,-1765.52l0 -2663.48c530.17,379.53 1167.25,584.39 1819.6,584.39 1.53,0 3.43,0 4.96,0l-0.02 -1308.48c-128.31,-0.7 -255.91,-14.1 -381.4,-40.89z"/>
    <path class="fil2" d="M6448.18 6072.29l0 -2670.88c529.87,379.92 1165.94,584.45 1818,584.45 1.9,0 4.57,0 6.47,0l0.06 -1016.62c-1717.19,-31.52 -1802.76,-739.14 -1823.04,-1779.01l-1226.89 -0.05 10.78 5262.25c-40.15,976.45 -868.79,1493.48 -1716.92,1038.75 -1423.41,-542.97 -417.91,-2856.27 837.39,-2465.82l-0.04 -978.89c-2079.06,-149.47 -3795.18,3208.58 -1374.63,4656.38 414.2,247.74 3464.26,-521.92 3468.73,-2630.68l0.09 0.13z"/>
    <path class="fil3" d="M6444.51 6510.18l0 -2670.88c529.87,379.92 1165.94,584.45 1818,584.45 1.91,0 4.57,0 6.47,0l0.06 -1016.62c-386.42,-81.67 -736.38,-286.93 -996.18,-584.35 -419.35,-271.4 -709.11,-703.81 -800.43,-1194.67l-960.63 -0.05 0 5260.69c-25.03,608.77 -538.27,1081.82 -1147.03,1057.14 -337.17,-13.63 -650.13,-181.48 -848.13,-454.73 -538.97,-283.76 -745.89,-950.69 -462.13,-1489.66 189.61,-360.37 563.09,-587.15 970.49,-589.03 110.33,1.06 219.96,17.98 325.36,50.76l-0.04 -1031.75c-1330.33,22.56 -2390.65,1134.69 -2368.09,2465.02 8.3,502.36 174.05,987.28 469.21,1388.01 174.42,236.81 256.08,300.85 530.38,427.87 309.82,143.46 654.33,210.38 999.1,210.38 15.47,0 31.24,-0.29 46.42,-0.58 1333.15,-0.35 2414.26,-1079.35 2417.08,-2412.15l0.09 0.13z"/>
   </g>
  </g>
 </g>
</svg>
